%TF.GenerationSoftware,KiCad,Pcbnew,6.0.4-6f826c9f35~116~ubuntu20.04.1*%
%TF.CreationDate,2022-11-05T12:05:42+01:00*%
%TF.ProjectId,OST,4f53542e-6b69-4636-9164-5f7063625858,rev?*%
%TF.SameCoordinates,Original*%
%TF.FileFunction,Soldermask,Top*%
%TF.FilePolarity,Negative*%
%FSLAX46Y46*%
G04 Gerber Fmt 4.6, Leading zero omitted, Abs format (unit mm)*
G04 Created by KiCad (PCBNEW 6.0.4-6f826c9f35~116~ubuntu20.04.1) date 2022-11-05 12:05:42*
%MOMM*%
%LPD*%
G01*
G04 APERTURE LIST*
G04 Aperture macros list*
%AMRoundRect*
0 Rectangle with rounded corners*
0 $1 Rounding radius*
0 $2 $3 $4 $5 $6 $7 $8 $9 X,Y pos of 4 corners*
0 Add a 4 corners polygon primitive as box body*
4,1,4,$2,$3,$4,$5,$6,$7,$8,$9,$2,$3,0*
0 Add four circle primitives for the rounded corners*
1,1,$1+$1,$2,$3*
1,1,$1+$1,$4,$5*
1,1,$1+$1,$6,$7*
1,1,$1+$1,$8,$9*
0 Add four rect primitives between the rounded corners*
20,1,$1+$1,$2,$3,$4,$5,0*
20,1,$1+$1,$4,$5,$6,$7,0*
20,1,$1+$1,$6,$7,$8,$9,0*
20,1,$1+$1,$8,$9,$2,$3,0*%
%AMFreePoly0*
4,1,25,0.599469,1.161696,0.611592,1.151342,1.151342,0.611592,1.179849,0.555644,1.181100,0.539750,1.181100,-0.539750,1.161696,-0.599469,1.151342,-0.611592,0.611592,-1.151342,0.555644,-1.179849,0.539750,-1.181100,-0.539750,-1.181100,-0.599469,-1.161696,-0.611592,-1.151342,-1.151342,-0.611592,-1.179849,-0.555644,-1.181100,-0.539750,-1.181100,0.539750,-1.161696,0.599469,-1.151342,0.611592,
-0.611592,1.151342,-0.555644,1.179849,-0.539750,1.181100,0.539750,1.181100,0.599469,1.161696,0.599469,1.161696,$1*%
%AMFreePoly1*
4,1,25,0.440719,0.844196,0.452842,0.833842,0.833842,0.452842,0.862349,0.396894,0.863600,0.381000,0.863600,-0.381000,0.844196,-0.440719,0.833842,-0.452842,0.452842,-0.833842,0.396894,-0.862349,0.381000,-0.863600,-0.381000,-0.863600,-0.440719,-0.844196,-0.452842,-0.833842,-0.833842,-0.452842,-0.862349,-0.396894,-0.863600,-0.381000,-0.863600,0.381000,-0.844196,0.440719,-0.833842,0.452842,
-0.452842,0.833842,-0.396894,0.862349,-0.381000,0.863600,0.381000,0.863600,0.440719,0.844196,0.440719,0.844196,$1*%
G04 Aperture macros list end*
%ADD10RoundRect,0.101600X-0.765000X0.765000X-0.765000X-0.765000X0.765000X-0.765000X0.765000X0.765000X0*%
%ADD11RoundRect,0.101600X0.889000X-0.889000X0.889000X0.889000X-0.889000X0.889000X-0.889000X-0.889000X0*%
%ADD12C,1.981200*%
%ADD13C,3.200000*%
%ADD14FreePoly0,0.000000*%
%ADD15C,1.763200*%
%ADD16RoundRect,0.101600X-0.780000X-0.780000X0.780000X-0.780000X0.780000X0.780000X-0.780000X0.780000X0*%
%ADD17O,1.993900X3.784600*%
%ADD18C,1.879600*%
%ADD19FreePoly1,90.000000*%
%ADD20C,1.727200*%
G04 APERTURE END LIST*
D10*
%TO.C,T_MCU0*%
X106771100Y-90548600D03*
X104231100Y-90548600D03*
X101691100Y-90548600D03*
%TD*%
D11*
%TO.C,U1*%
X134341100Y-86243600D03*
D12*
X152121100Y-86243600D03*
X149581100Y-86243600D03*
X147041100Y-86243600D03*
X144501100Y-86243600D03*
X141961100Y-86243600D03*
X139421100Y-86243600D03*
X136881100Y-86243600D03*
X152121100Y-98943600D03*
X149581100Y-98943600D03*
X147041100Y-98943600D03*
X144501100Y-98943600D03*
X141961100Y-98943600D03*
X139421100Y-98943600D03*
X136881100Y-98943600D03*
D11*
X134341100Y-98943600D03*
%TD*%
D13*
%TO.C,H1*%
X210501100Y-134503600D03*
%TD*%
%TO.C,H2*%
X210501100Y-75503600D03*
%TD*%
%TO.C,H3*%
X86501100Y-134503600D03*
%TD*%
%TO.C,H4*%
X86501100Y-75503600D03*
%TD*%
D14*
%TO.C,PAD16*%
X104251100Y-87503600D03*
%TD*%
%TO.C,PAD17*%
X101751100Y-87503600D03*
%TD*%
D15*
%TO.C,MCU0*%
X118201100Y-130463600D03*
X118201100Y-127923600D03*
X118201100Y-125383600D03*
X118201100Y-122843600D03*
X118201100Y-120303600D03*
X118201100Y-117763600D03*
X118201100Y-115223600D03*
X118201100Y-112683600D03*
X118201100Y-110143600D03*
X118201100Y-107603600D03*
X118201100Y-105063600D03*
X118201100Y-102523600D03*
X118201100Y-99983600D03*
X118201100Y-97443600D03*
X118201100Y-94903600D03*
X118201100Y-92363600D03*
X118201100Y-89823600D03*
X118201100Y-87283600D03*
X118201100Y-84743600D03*
X92801100Y-127923600D03*
X92801100Y-125383600D03*
X92801100Y-122843600D03*
X92801100Y-120303600D03*
X92801100Y-117763600D03*
X92801100Y-115223600D03*
X92801100Y-112683600D03*
X92801100Y-110143600D03*
X92801100Y-107603600D03*
X92801100Y-105063600D03*
X92801100Y-102523600D03*
X92801100Y-99983600D03*
X92801100Y-97443600D03*
X92801100Y-94903600D03*
X92801100Y-92363600D03*
X92801100Y-89823600D03*
X92801100Y-130463600D03*
X92801100Y-87283600D03*
D16*
X92801100Y-84743600D03*
%TD*%
D17*
%TO.C,X1*%
X102961100Y-78868600D03*
X108041100Y-78868600D03*
%TD*%
D18*
%TO.C,U$1*%
X121501100Y-128613600D03*
X121501100Y-126073600D03*
X121501100Y-123533600D03*
X121501100Y-120993600D03*
X121501100Y-118453600D03*
X121501100Y-115913600D03*
X121501100Y-113373600D03*
X121501100Y-110833600D03*
X121501100Y-108293600D03*
X121501100Y-105753600D03*
X121501100Y-103213600D03*
X121501100Y-100673600D03*
X121501100Y-98133600D03*
X121501100Y-95593600D03*
X121501100Y-93053600D03*
X121501100Y-90513600D03*
X121501100Y-87973600D03*
X121501100Y-85433600D03*
X121501100Y-82893600D03*
%TD*%
%TO.C,U$2*%
X89501100Y-82893600D03*
X89501100Y-85433600D03*
X89501100Y-87973600D03*
X89501100Y-90513600D03*
X89501100Y-93053600D03*
X89501100Y-95593600D03*
X89501100Y-98133600D03*
X89501100Y-100673600D03*
X89501100Y-103213600D03*
X89501100Y-105753600D03*
X89501100Y-108293600D03*
X89501100Y-110833600D03*
X89501100Y-113373600D03*
X89501100Y-115913600D03*
X89501100Y-118453600D03*
X89501100Y-120993600D03*
X89501100Y-123533600D03*
X89501100Y-126073600D03*
X89501100Y-128613600D03*
%TD*%
%TO.C,U$3*%
X152121100Y-83703600D03*
X149581100Y-83703600D03*
X147041100Y-83703600D03*
X144501100Y-83703600D03*
X141961100Y-83703600D03*
X139421100Y-83703600D03*
X136881100Y-83703600D03*
X134341100Y-83703600D03*
%TD*%
%TO.C,U$4*%
X134341100Y-101483600D03*
X136881100Y-101483600D03*
X139421100Y-101483600D03*
X141961100Y-101483600D03*
X144501100Y-101483600D03*
X147041100Y-101483600D03*
X149581100Y-101483600D03*
X152121100Y-101483600D03*
%TD*%
D19*
%TO.C,U$5*%
X136881100Y-90053600D03*
X136881100Y-92593600D03*
X136881100Y-95133600D03*
X139421100Y-90053600D03*
X139421100Y-92593600D03*
D20*
X139421100Y-95133600D03*
%TD*%
D18*
%TO.C,U$6*%
X152121100Y-80893600D03*
X149581100Y-80893600D03*
X147041100Y-80893600D03*
X144501100Y-80893600D03*
X141961100Y-80893600D03*
X139421100Y-80893600D03*
X136881100Y-80893600D03*
%TD*%
D11*
%TO.C,U2*%
X134341100Y-115243600D03*
D12*
X152121100Y-115243600D03*
X149581100Y-115243600D03*
X147041100Y-115243600D03*
X144501100Y-115243600D03*
X141961100Y-115243600D03*
X139421100Y-115243600D03*
X136881100Y-115243600D03*
X152121100Y-127943600D03*
X149581100Y-127943600D03*
X147041100Y-127943600D03*
X144501100Y-127943600D03*
X141961100Y-127943600D03*
X139421100Y-127943600D03*
X136881100Y-127943600D03*
D11*
X134341100Y-127943600D03*
%TD*%
D18*
%TO.C,U$11*%
X152121100Y-112703600D03*
X149581100Y-112703600D03*
X147041100Y-112703600D03*
X144501100Y-112703600D03*
X141961100Y-112703600D03*
X139421100Y-112703600D03*
X136881100Y-112703600D03*
X134341100Y-112703600D03*
%TD*%
%TO.C,U$12*%
X134341100Y-130483600D03*
X136881100Y-130483600D03*
X139421100Y-130483600D03*
X141961100Y-130483600D03*
X144501100Y-130483600D03*
X147041100Y-130483600D03*
X149581100Y-130483600D03*
X152121100Y-130483600D03*
%TD*%
D19*
%TO.C,U$13*%
X136881100Y-119053600D03*
X136881100Y-121593600D03*
X136881100Y-124133600D03*
X139421100Y-119053600D03*
X139421100Y-121593600D03*
D20*
X139421100Y-124133600D03*
%TD*%
D18*
%TO.C,U$14*%
X152121100Y-109893600D03*
X149581100Y-109893600D03*
X147041100Y-109893600D03*
X144501100Y-109893600D03*
X141961100Y-109893600D03*
X139421100Y-109893600D03*
X136881100Y-109893600D03*
%TD*%
D11*
%TO.C,U3*%
X160341100Y-86243600D03*
D12*
X178121100Y-86243600D03*
X175581100Y-86243600D03*
X173041100Y-86243600D03*
X170501100Y-86243600D03*
X167961100Y-86243600D03*
X165421100Y-86243600D03*
X162881100Y-86243600D03*
X178121100Y-98943600D03*
X175581100Y-98943600D03*
X173041100Y-98943600D03*
X170501100Y-98943600D03*
X167961100Y-98943600D03*
X165421100Y-98943600D03*
X162881100Y-98943600D03*
D11*
X160341100Y-98943600D03*
%TD*%
D18*
%TO.C,U$15*%
X178121100Y-83703600D03*
X175581100Y-83703600D03*
X173041100Y-83703600D03*
X170501100Y-83703600D03*
X167961100Y-83703600D03*
X165421100Y-83703600D03*
X162881100Y-83703600D03*
X160341100Y-83703600D03*
%TD*%
%TO.C,U$16*%
X160341100Y-101483600D03*
X162881100Y-101483600D03*
X165421100Y-101483600D03*
X167961100Y-101483600D03*
X170501100Y-101483600D03*
X173041100Y-101483600D03*
X175581100Y-101483600D03*
X178121100Y-101483600D03*
%TD*%
D19*
%TO.C,U$17*%
X162881100Y-90053600D03*
X162881100Y-92593600D03*
X162881100Y-95133600D03*
X165421100Y-90053600D03*
X165421100Y-92593600D03*
D20*
X165421100Y-95133600D03*
%TD*%
D18*
%TO.C,U$18*%
X178121100Y-80893600D03*
X175581100Y-80893600D03*
X173041100Y-80893600D03*
X170501100Y-80893600D03*
X167961100Y-80893600D03*
X165421100Y-80893600D03*
X162881100Y-80893600D03*
%TD*%
D11*
%TO.C,U5*%
X186341100Y-86243600D03*
D12*
X204121100Y-86243600D03*
X201581100Y-86243600D03*
X199041100Y-86243600D03*
X196501100Y-86243600D03*
X193961100Y-86243600D03*
X191421100Y-86243600D03*
X188881100Y-86243600D03*
X204121100Y-98943600D03*
X201581100Y-98943600D03*
X199041100Y-98943600D03*
X196501100Y-98943600D03*
X193961100Y-98943600D03*
X191421100Y-98943600D03*
X188881100Y-98943600D03*
D11*
X186341100Y-98943600D03*
%TD*%
D18*
%TO.C,U$23*%
X204121100Y-83703600D03*
X201581100Y-83703600D03*
X199041100Y-83703600D03*
X196501100Y-83703600D03*
X193961100Y-83703600D03*
X191421100Y-83703600D03*
X188881100Y-83703600D03*
X186341100Y-83703600D03*
%TD*%
%TO.C,U$24*%
X186341100Y-101483600D03*
X188881100Y-101483600D03*
X191421100Y-101483600D03*
X193961100Y-101483600D03*
X196501100Y-101483600D03*
X199041100Y-101483600D03*
X201581100Y-101483600D03*
X204121100Y-101483600D03*
%TD*%
D19*
%TO.C,U$25*%
X188881100Y-90053600D03*
X188881100Y-92593600D03*
X188881100Y-95133600D03*
X191421100Y-90053600D03*
X191421100Y-92593600D03*
D20*
X191421100Y-95133600D03*
%TD*%
D18*
%TO.C,U$26*%
X204121100Y-80893600D03*
X201581100Y-80893600D03*
X199041100Y-80893600D03*
X196501100Y-80893600D03*
X193961100Y-80893600D03*
X191421100Y-80893600D03*
X188881100Y-80893600D03*
%TD*%
D11*
%TO.C,U4*%
X160341100Y-115243600D03*
D12*
X178121100Y-115243600D03*
X175581100Y-115243600D03*
X173041100Y-115243600D03*
X170501100Y-115243600D03*
X167961100Y-115243600D03*
X165421100Y-115243600D03*
X162881100Y-115243600D03*
X178121100Y-127943600D03*
X175581100Y-127943600D03*
X173041100Y-127943600D03*
X170501100Y-127943600D03*
X167961100Y-127943600D03*
X165421100Y-127943600D03*
X162881100Y-127943600D03*
D11*
X160341100Y-127943600D03*
%TD*%
D18*
%TO.C,U$31*%
X178121100Y-112703600D03*
X175581100Y-112703600D03*
X173041100Y-112703600D03*
X170501100Y-112703600D03*
X167961100Y-112703600D03*
X165421100Y-112703600D03*
X162881100Y-112703600D03*
X160341100Y-112703600D03*
%TD*%
%TO.C,U$32*%
X160341100Y-130483600D03*
X162881100Y-130483600D03*
X165421100Y-130483600D03*
X167961100Y-130483600D03*
X170501100Y-130483600D03*
X173041100Y-130483600D03*
X175581100Y-130483600D03*
X178121100Y-130483600D03*
%TD*%
D19*
%TO.C,U$33*%
X162881100Y-119053600D03*
X162881100Y-121593600D03*
X162881100Y-124133600D03*
X165421100Y-119053600D03*
X165421100Y-121593600D03*
D20*
X165421100Y-124133600D03*
%TD*%
D18*
%TO.C,U$34*%
X178121100Y-109893600D03*
X175581100Y-109893600D03*
X173041100Y-109893600D03*
X170501100Y-109893600D03*
X167961100Y-109893600D03*
X165421100Y-109893600D03*
X162881100Y-109893600D03*
%TD*%
D11*
%TO.C,U6*%
X186341100Y-115243600D03*
D12*
X204121100Y-115243600D03*
X201581100Y-115243600D03*
X199041100Y-115243600D03*
X196501100Y-115243600D03*
X193961100Y-115243600D03*
X191421100Y-115243600D03*
X188881100Y-115243600D03*
X204121100Y-127943600D03*
X201581100Y-127943600D03*
X199041100Y-127943600D03*
X196501100Y-127943600D03*
X193961100Y-127943600D03*
X191421100Y-127943600D03*
X188881100Y-127943600D03*
D11*
X186341100Y-127943600D03*
%TD*%
D18*
%TO.C,U$39*%
X204121100Y-112703600D03*
X201581100Y-112703600D03*
X199041100Y-112703600D03*
X196501100Y-112703600D03*
X193961100Y-112703600D03*
X191421100Y-112703600D03*
X188881100Y-112703600D03*
X186341100Y-112703600D03*
%TD*%
%TO.C,U$40*%
X186341100Y-130483600D03*
X188881100Y-130483600D03*
X191421100Y-130483600D03*
X193961100Y-130483600D03*
X196501100Y-130483600D03*
X199041100Y-130483600D03*
X201581100Y-130483600D03*
X204121100Y-130483600D03*
%TD*%
D19*
%TO.C,U$41*%
X188881100Y-119053600D03*
X188881100Y-121593600D03*
X188881100Y-124133600D03*
X191421100Y-119053600D03*
X191421100Y-121593600D03*
D20*
X191421100Y-124133600D03*
%TD*%
D18*
%TO.C,U$42*%
X204121100Y-109893600D03*
X201581100Y-109893600D03*
X199041100Y-109893600D03*
X196501100Y-109893600D03*
X193961100Y-109893600D03*
X191421100Y-109893600D03*
X188881100Y-109893600D03*
%TD*%
M02*
