%TF.GenerationSoftware,KiCad,Pcbnew,6.0.4-6f826c9f35~116~ubuntu20.04.1*%
%TF.CreationDate,2022-11-05T12:05:41+01:00*%
%TF.ProjectId,OST,4f53542e-6b69-4636-9164-5f7063625858,rev?*%
%TF.SameCoordinates,Original*%
%TF.FileFunction,Legend,Top*%
%TF.FilePolarity,Positive*%
%FSLAX46Y46*%
G04 Gerber Fmt 4.6, Leading zero omitted, Abs format (unit mm)*
G04 Created by KiCad (PCBNEW 6.0.4-6f826c9f35~116~ubuntu20.04.1) date 2022-11-05 12:05:41*
%MOMM*%
%LPD*%
G01*
G04 APERTURE LIST*
%ADD10C,0.081280*%
%ADD11C,0.101600*%
%ADD12C,0.065024*%
%ADD13C,0.146304*%
%ADD14C,0.093472*%
%ADD15C,0.048768*%
%ADD16C,0.127000*%
%ADD17C,0.203200*%
%ADD18C,0.152400*%
G04 APERTURE END LIST*
D10*
X132250736Y-103126834D02*
X132562309Y-103126834D01*
X132695840Y-103616449D02*
X132250736Y-103616449D01*
X132250736Y-102681729D01*
X132695840Y-102681729D01*
X133096435Y-103616449D02*
X133096435Y-102681729D01*
X133630560Y-103616449D01*
X133630560Y-102681729D01*
X134787833Y-103616449D02*
X134787833Y-102681729D01*
X135099406Y-103349386D01*
X135410980Y-102681729D01*
X135410980Y-103616449D01*
X135811574Y-103571939D02*
X135945105Y-103616449D01*
X136167658Y-103616449D01*
X136256679Y-103571939D01*
X136301189Y-103527428D01*
X136345700Y-103438407D01*
X136345700Y-103349386D01*
X136301189Y-103260365D01*
X136256679Y-103215855D01*
X136167658Y-103171344D01*
X135989616Y-103126834D01*
X135900595Y-103082323D01*
X135856084Y-103037813D01*
X135811574Y-102948792D01*
X135811574Y-102859771D01*
X135856084Y-102770750D01*
X135900595Y-102726240D01*
X135989616Y-102681729D01*
X136212168Y-102681729D01*
X136345700Y-102726240D01*
X137235909Y-103616449D02*
X136701783Y-103616449D01*
X136968846Y-103616449D02*
X136968846Y-102681729D01*
X136879825Y-102815260D01*
X136790804Y-102904281D01*
X136701783Y-102948792D01*
X138348671Y-103616449D02*
X138348671Y-102681729D01*
X138660244Y-103349386D01*
X138971818Y-102681729D01*
X138971818Y-103616449D01*
X139372412Y-103571939D02*
X139505943Y-103616449D01*
X139728496Y-103616449D01*
X139817517Y-103571939D01*
X139862027Y-103527428D01*
X139906538Y-103438407D01*
X139906538Y-103349386D01*
X139862027Y-103260365D01*
X139817517Y-103215855D01*
X139728496Y-103171344D01*
X139550454Y-103126834D01*
X139461433Y-103082323D01*
X139416922Y-103037813D01*
X139372412Y-102948792D01*
X139372412Y-102859771D01*
X139416922Y-102770750D01*
X139461433Y-102726240D01*
X139550454Y-102681729D01*
X139773006Y-102681729D01*
X139906538Y-102726240D01*
X140262621Y-102770750D02*
X140307132Y-102726240D01*
X140396153Y-102681729D01*
X140618705Y-102681729D01*
X140707726Y-102726240D01*
X140752237Y-102770750D01*
X140796747Y-102859771D01*
X140796747Y-102948792D01*
X140752237Y-103082323D01*
X140218111Y-103616449D01*
X140796747Y-103616449D01*
X141775978Y-102681729D02*
X142310103Y-102681729D01*
X142043040Y-103616449D02*
X142043040Y-102681729D01*
X142532656Y-102681729D02*
X143155802Y-103616449D01*
X143155802Y-102681729D02*
X142532656Y-103616449D01*
X144758180Y-103616449D02*
X144446606Y-103171344D01*
X144224054Y-103616449D02*
X144224054Y-102681729D01*
X144580138Y-102681729D01*
X144669159Y-102726240D01*
X144713669Y-102770750D01*
X144758180Y-102859771D01*
X144758180Y-102993302D01*
X144713669Y-103082323D01*
X144669159Y-103126834D01*
X144580138Y-103171344D01*
X144224054Y-103171344D01*
X145069753Y-102681729D02*
X145692900Y-103616449D01*
X145692900Y-102681729D02*
X145069753Y-103616449D01*
X147295277Y-103527428D02*
X147250766Y-103571939D01*
X147117235Y-103616449D01*
X147028214Y-103616449D01*
X146894682Y-103571939D01*
X146805661Y-103482918D01*
X146761151Y-103393897D01*
X146716640Y-103215855D01*
X146716640Y-103082323D01*
X146761151Y-102904281D01*
X146805661Y-102815260D01*
X146894682Y-102726240D01*
X147028214Y-102681729D01*
X147117235Y-102681729D01*
X147250766Y-102726240D01*
X147295277Y-102770750D01*
X147695871Y-103616449D02*
X147695871Y-102681729D01*
X148229997Y-103616449D02*
X147829402Y-103082323D01*
X148229997Y-102681729D02*
X147695871Y-103215855D01*
X149298248Y-103571939D02*
X149431780Y-103616449D01*
X149654332Y-103616449D01*
X149743353Y-103571939D01*
X149787863Y-103527428D01*
X149832374Y-103438407D01*
X149832374Y-103349386D01*
X149787863Y-103260365D01*
X149743353Y-103215855D01*
X149654332Y-103171344D01*
X149476290Y-103126834D01*
X149387269Y-103082323D01*
X149342759Y-103037813D01*
X149298248Y-102948792D01*
X149298248Y-102859771D01*
X149342759Y-102770750D01*
X149387269Y-102726240D01*
X149476290Y-102681729D01*
X149698842Y-102681729D01*
X149832374Y-102726240D01*
X150099437Y-102681729D02*
X150633562Y-102681729D01*
X150366500Y-103616449D02*
X150366500Y-102681729D01*
X150945136Y-103616449D02*
X150945136Y-102681729D01*
X151301220Y-102681729D01*
X151390240Y-102726240D01*
X151434751Y-102770750D01*
X151479261Y-102859771D01*
X151479261Y-102993302D01*
X151434751Y-103082323D01*
X151390240Y-103126834D01*
X151301220Y-103171344D01*
X150945136Y-103171344D01*
X152592023Y-103616449D02*
X152592023Y-102681729D01*
X152814576Y-102681729D01*
X152948107Y-102726240D01*
X153037128Y-102815260D01*
X153081639Y-102904281D01*
X153126149Y-103082323D01*
X153126149Y-103215855D01*
X153081639Y-103393897D01*
X153037128Y-103482918D01*
X152948107Y-103571939D01*
X152814576Y-103616449D01*
X152592023Y-103616449D01*
X153526743Y-103616449D02*
X153526743Y-102681729D01*
X154505974Y-103616449D02*
X154194400Y-103171344D01*
X153971848Y-103616449D02*
X153971848Y-102681729D01*
X154327932Y-102681729D01*
X154416953Y-102726240D01*
X154461463Y-102770750D01*
X154505974Y-102859771D01*
X154505974Y-102993302D01*
X154461463Y-103082323D01*
X154416953Y-103126834D01*
X154327932Y-103171344D01*
X153971848Y-103171344D01*
D11*
X135928928Y-79102961D02*
X135928928Y-77934561D01*
X136318395Y-78769133D01*
X136707861Y-77934561D01*
X136707861Y-79102961D01*
X137486795Y-77934561D02*
X137709347Y-77934561D01*
X137820623Y-77990200D01*
X137931900Y-78101476D01*
X137987538Y-78324028D01*
X137987538Y-78713495D01*
X137931900Y-78936047D01*
X137820623Y-79047323D01*
X137709347Y-79102961D01*
X137486795Y-79102961D01*
X137375519Y-79047323D01*
X137264242Y-78936047D01*
X137208604Y-78713495D01*
X137208604Y-78324028D01*
X137264242Y-78101476D01*
X137375519Y-77990200D01*
X137486795Y-77934561D01*
X138321366Y-77934561D02*
X138989023Y-77934561D01*
X138655195Y-79102961D02*
X138655195Y-77934561D01*
X139601042Y-77934561D02*
X139823595Y-77934561D01*
X139934871Y-77990200D01*
X140046147Y-78101476D01*
X140101785Y-78324028D01*
X140101785Y-78713495D01*
X140046147Y-78936047D01*
X139934871Y-79047323D01*
X139823595Y-79102961D01*
X139601042Y-79102961D01*
X139489766Y-79047323D01*
X139378490Y-78936047D01*
X139322852Y-78713495D01*
X139322852Y-78324028D01*
X139378490Y-78101476D01*
X139489766Y-77990200D01*
X139601042Y-77934561D01*
X141270185Y-79102961D02*
X140880719Y-78546580D01*
X140602528Y-79102961D02*
X140602528Y-77934561D01*
X141047633Y-77934561D01*
X141158909Y-77990200D01*
X141214547Y-78045838D01*
X141270185Y-78157114D01*
X141270185Y-78324028D01*
X141214547Y-78435304D01*
X141158909Y-78490942D01*
X141047633Y-78546580D01*
X140602528Y-78546580D01*
X143328795Y-78991685D02*
X143273157Y-79047323D01*
X143106242Y-79102961D01*
X142994966Y-79102961D01*
X142828052Y-79047323D01*
X142716776Y-78936047D01*
X142661138Y-78824771D01*
X142605500Y-78602219D01*
X142605500Y-78435304D01*
X142661138Y-78212752D01*
X142716776Y-78101476D01*
X142828052Y-77990200D01*
X142994966Y-77934561D01*
X143106242Y-77934561D01*
X143273157Y-77990200D01*
X143328795Y-78045838D01*
X144052090Y-77934561D02*
X144274642Y-77934561D01*
X144385919Y-77990200D01*
X144497195Y-78101476D01*
X144552833Y-78324028D01*
X144552833Y-78713495D01*
X144497195Y-78936047D01*
X144385919Y-79047323D01*
X144274642Y-79102961D01*
X144052090Y-79102961D01*
X143940814Y-79047323D01*
X143829538Y-78936047D01*
X143773900Y-78713495D01*
X143773900Y-78324028D01*
X143829538Y-78101476D01*
X143940814Y-77990200D01*
X144052090Y-77934561D01*
X145053576Y-79102961D02*
X145053576Y-77934561D01*
X145721233Y-79102961D01*
X145721233Y-77934561D01*
X146277614Y-79102961D02*
X146277614Y-77934561D01*
X146945271Y-79102961D01*
X146945271Y-77934561D01*
D12*
X103736365Y-85434512D02*
X103665149Y-85398903D01*
X103558324Y-85398903D01*
X103451498Y-85434512D01*
X103380282Y-85505728D01*
X103344673Y-85576945D01*
X103309065Y-85719379D01*
X103309065Y-85826204D01*
X103344673Y-85968637D01*
X103380282Y-86039854D01*
X103451498Y-86111071D01*
X103558324Y-86146679D01*
X103629540Y-86146679D01*
X103736365Y-86111071D01*
X103771974Y-86075462D01*
X103771974Y-85826204D01*
X103629540Y-85826204D01*
X104092449Y-86146679D02*
X104092449Y-85398903D01*
X104519750Y-86146679D01*
X104519750Y-85398903D01*
X104875834Y-86146679D02*
X104875834Y-85398903D01*
X105053876Y-85398903D01*
X105160701Y-85434512D01*
X105231917Y-85505728D01*
X105267526Y-85576945D01*
X105303134Y-85719379D01*
X105303134Y-85826204D01*
X105267526Y-85968637D01*
X105231917Y-86039854D01*
X105160701Y-86111071D01*
X105053876Y-86146679D01*
X104875834Y-86146679D01*
D13*
X100508150Y-84816206D02*
X101015956Y-84816206D01*
X101238122Y-84403614D02*
X101618976Y-84403614D01*
X101428549Y-85070110D02*
X101428549Y-84403614D01*
X101841142Y-84720993D02*
X102063307Y-84720993D01*
X102158521Y-85070110D02*
X101841142Y-85070110D01*
X101841142Y-84403614D01*
X102158521Y-84403614D01*
X102412424Y-85038372D02*
X102507638Y-85070110D01*
X102666327Y-85070110D01*
X102729803Y-85038372D01*
X102761541Y-85006634D01*
X102793279Y-84943158D01*
X102793279Y-84879682D01*
X102761541Y-84816206D01*
X102729803Y-84784468D01*
X102666327Y-84752731D01*
X102539376Y-84720993D01*
X102475900Y-84689255D01*
X102444162Y-84657517D01*
X102412424Y-84594041D01*
X102412424Y-84530565D01*
X102444162Y-84467089D01*
X102475900Y-84435352D01*
X102539376Y-84403614D01*
X102698065Y-84403614D01*
X102793279Y-84435352D01*
X102983706Y-84403614D02*
X103364561Y-84403614D01*
X103174134Y-85070110D02*
X103174134Y-84403614D01*
X103586727Y-84720993D02*
X103808892Y-84720993D01*
X103904106Y-85070110D02*
X103586727Y-85070110D01*
X103586727Y-84403614D01*
X103904106Y-84403614D01*
X104570602Y-85070110D02*
X104348436Y-84752731D01*
X104189747Y-85070110D02*
X104189747Y-84403614D01*
X104443650Y-84403614D01*
X104507126Y-84435352D01*
X104538864Y-84467089D01*
X104570602Y-84530565D01*
X104570602Y-84625779D01*
X104538864Y-84689255D01*
X104507126Y-84720993D01*
X104443650Y-84752731D01*
X104189747Y-84752731D01*
X104856243Y-84816206D02*
X105364049Y-84816206D01*
D12*
X100947107Y-85424303D02*
X101196365Y-86172079D01*
X101445624Y-85424303D01*
X101694883Y-86172079D02*
X101694883Y-85424303D01*
X102050967Y-86172079D02*
X102050967Y-85424303D01*
X102478267Y-86172079D01*
X102478267Y-85424303D01*
D10*
X132410054Y-81526729D02*
X132721627Y-82461449D01*
X133033200Y-81526729D01*
X133344774Y-82461449D02*
X133344774Y-81526729D01*
X133656347Y-82194386D01*
X133967920Y-81526729D01*
X133967920Y-82461449D01*
X135614808Y-81571240D02*
X135525787Y-81526729D01*
X135392256Y-81526729D01*
X135258724Y-81571240D01*
X135169703Y-81660260D01*
X135125193Y-81749281D01*
X135080682Y-81927323D01*
X135080682Y-82060855D01*
X135125193Y-82238897D01*
X135169703Y-82327918D01*
X135258724Y-82416939D01*
X135392256Y-82461449D01*
X135481277Y-82461449D01*
X135614808Y-82416939D01*
X135659319Y-82372428D01*
X135659319Y-82060855D01*
X135481277Y-82060855D01*
X136059913Y-82461449D02*
X136059913Y-81526729D01*
X136594039Y-82461449D01*
X136594039Y-81526729D01*
X137039143Y-82461449D02*
X137039143Y-81526729D01*
X137261696Y-81526729D01*
X137395227Y-81571240D01*
X137484248Y-81660260D01*
X137528759Y-81749281D01*
X137573269Y-81927323D01*
X137573269Y-82060855D01*
X137528759Y-82238897D01*
X137484248Y-82327918D01*
X137395227Y-82416939D01*
X137261696Y-82461449D01*
X137039143Y-82461449D01*
X138641520Y-82194386D02*
X139086625Y-82194386D01*
X138552500Y-82461449D02*
X138864073Y-81526729D01*
X139175646Y-82461449D01*
X139442709Y-81615750D02*
X139487220Y-81571240D01*
X139576240Y-81526729D01*
X139798793Y-81526729D01*
X139887814Y-81571240D01*
X139932324Y-81615750D01*
X139976835Y-81704771D01*
X139976835Y-81793792D01*
X139932324Y-81927323D01*
X139398199Y-82461449D01*
X139976835Y-82461449D01*
X141045086Y-82194386D02*
X141490191Y-82194386D01*
X140956065Y-82461449D02*
X141267639Y-81526729D01*
X141579212Y-82461449D01*
X142380400Y-82461449D02*
X141846275Y-82461449D01*
X142113338Y-82461449D02*
X142113338Y-81526729D01*
X142024317Y-81660260D01*
X141935296Y-81749281D01*
X141846275Y-81793792D01*
X143804736Y-81971834D02*
X143938267Y-82016344D01*
X143982778Y-82060855D01*
X144027288Y-82149876D01*
X144027288Y-82283407D01*
X143982778Y-82372428D01*
X143938267Y-82416939D01*
X143849246Y-82461449D01*
X143493162Y-82461449D01*
X143493162Y-81526729D01*
X143804736Y-81526729D01*
X143893757Y-81571240D01*
X143938267Y-81615750D01*
X143982778Y-81704771D01*
X143982778Y-81793792D01*
X143938267Y-81882813D01*
X143893757Y-81927323D01*
X143804736Y-81971834D01*
X143493162Y-81971834D01*
X144917498Y-82461449D02*
X144383372Y-82461449D01*
X144650435Y-82461449D02*
X144650435Y-81526729D01*
X144561414Y-81660260D01*
X144472393Y-81749281D01*
X144383372Y-81793792D01*
X146341833Y-81971834D02*
X146475364Y-82016344D01*
X146519875Y-82060855D01*
X146564385Y-82149876D01*
X146564385Y-82283407D01*
X146519875Y-82372428D01*
X146475364Y-82416939D01*
X146386343Y-82461449D01*
X146030260Y-82461449D01*
X146030260Y-81526729D01*
X146341833Y-81526729D01*
X146430854Y-81571240D01*
X146475364Y-81615750D01*
X146519875Y-81704771D01*
X146519875Y-81793792D01*
X146475364Y-81882813D01*
X146430854Y-81927323D01*
X146341833Y-81971834D01*
X146030260Y-81971834D01*
X146920469Y-81615750D02*
X146964980Y-81571240D01*
X147054000Y-81526729D01*
X147276553Y-81526729D01*
X147365574Y-81571240D01*
X147410084Y-81615750D01*
X147454595Y-81704771D01*
X147454595Y-81793792D01*
X147410084Y-81927323D01*
X146875959Y-82461449D01*
X147454595Y-82461449D01*
X148433825Y-81526729D02*
X148745399Y-82461449D01*
X149056972Y-81526729D01*
X149368545Y-82461449D02*
X149368545Y-81526729D01*
X149991692Y-81526729D02*
X150169734Y-81526729D01*
X150258755Y-81571240D01*
X150347776Y-81660260D01*
X150392286Y-81838302D01*
X150392286Y-82149876D01*
X150347776Y-82327918D01*
X150258755Y-82416939D01*
X150169734Y-82461449D01*
X149991692Y-82461449D01*
X149902671Y-82416939D01*
X149813650Y-82327918D01*
X149769140Y-82149876D01*
X149769140Y-81838302D01*
X149813650Y-81660260D01*
X149902671Y-81571240D01*
X149991692Y-81526729D01*
X151994663Y-81571240D02*
X151905642Y-81526729D01*
X151772111Y-81526729D01*
X151638580Y-81571240D01*
X151549559Y-81660260D01*
X151505048Y-81749281D01*
X151460538Y-81927323D01*
X151460538Y-82060855D01*
X151505048Y-82238897D01*
X151549559Y-82327918D01*
X151638580Y-82416939D01*
X151772111Y-82461449D01*
X151861132Y-82461449D01*
X151994663Y-82416939D01*
X152039174Y-82372428D01*
X152039174Y-82060855D01*
X151861132Y-82060855D01*
X152439768Y-82461449D02*
X152439768Y-81526729D01*
X152973894Y-82461449D01*
X152973894Y-81526729D01*
X153418999Y-82461449D02*
X153418999Y-81526729D01*
X153641551Y-81526729D01*
X153775082Y-81571240D01*
X153864103Y-81660260D01*
X153908614Y-81749281D01*
X153953124Y-81927323D01*
X153953124Y-82060855D01*
X153908614Y-82238897D01*
X153864103Y-82327918D01*
X153775082Y-82416939D01*
X153641551Y-82461449D01*
X153418999Y-82461449D01*
X132250736Y-132126834D02*
X132562309Y-132126834D01*
X132695840Y-132616449D02*
X132250736Y-132616449D01*
X132250736Y-131681729D01*
X132695840Y-131681729D01*
X133096435Y-132616449D02*
X133096435Y-131681729D01*
X133630560Y-132616449D01*
X133630560Y-131681729D01*
X134787833Y-132616449D02*
X134787833Y-131681729D01*
X135099406Y-132349386D01*
X135410980Y-131681729D01*
X135410980Y-132616449D01*
X135811574Y-132571939D02*
X135945105Y-132616449D01*
X136167658Y-132616449D01*
X136256679Y-132571939D01*
X136301189Y-132527428D01*
X136345700Y-132438407D01*
X136345700Y-132349386D01*
X136301189Y-132260365D01*
X136256679Y-132215855D01*
X136167658Y-132171344D01*
X135989616Y-132126834D01*
X135900595Y-132082323D01*
X135856084Y-132037813D01*
X135811574Y-131948792D01*
X135811574Y-131859771D01*
X135856084Y-131770750D01*
X135900595Y-131726240D01*
X135989616Y-131681729D01*
X136212168Y-131681729D01*
X136345700Y-131726240D01*
X137235909Y-132616449D02*
X136701783Y-132616449D01*
X136968846Y-132616449D02*
X136968846Y-131681729D01*
X136879825Y-131815260D01*
X136790804Y-131904281D01*
X136701783Y-131948792D01*
X138348671Y-132616449D02*
X138348671Y-131681729D01*
X138660244Y-132349386D01*
X138971818Y-131681729D01*
X138971818Y-132616449D01*
X139372412Y-132571939D02*
X139505943Y-132616449D01*
X139728496Y-132616449D01*
X139817517Y-132571939D01*
X139862027Y-132527428D01*
X139906538Y-132438407D01*
X139906538Y-132349386D01*
X139862027Y-132260365D01*
X139817517Y-132215855D01*
X139728496Y-132171344D01*
X139550454Y-132126834D01*
X139461433Y-132082323D01*
X139416922Y-132037813D01*
X139372412Y-131948792D01*
X139372412Y-131859771D01*
X139416922Y-131770750D01*
X139461433Y-131726240D01*
X139550454Y-131681729D01*
X139773006Y-131681729D01*
X139906538Y-131726240D01*
X140262621Y-131770750D02*
X140307132Y-131726240D01*
X140396153Y-131681729D01*
X140618705Y-131681729D01*
X140707726Y-131726240D01*
X140752237Y-131770750D01*
X140796747Y-131859771D01*
X140796747Y-131948792D01*
X140752237Y-132082323D01*
X140218111Y-132616449D01*
X140796747Y-132616449D01*
X141775978Y-131681729D02*
X142310103Y-131681729D01*
X142043040Y-132616449D02*
X142043040Y-131681729D01*
X142532656Y-131681729D02*
X143155802Y-132616449D01*
X143155802Y-131681729D02*
X142532656Y-132616449D01*
X144758180Y-132616449D02*
X144446606Y-132171344D01*
X144224054Y-132616449D02*
X144224054Y-131681729D01*
X144580138Y-131681729D01*
X144669159Y-131726240D01*
X144713669Y-131770750D01*
X144758180Y-131859771D01*
X144758180Y-131993302D01*
X144713669Y-132082323D01*
X144669159Y-132126834D01*
X144580138Y-132171344D01*
X144224054Y-132171344D01*
X145069753Y-131681729D02*
X145692900Y-132616449D01*
X145692900Y-131681729D02*
X145069753Y-132616449D01*
X147295277Y-132527428D02*
X147250766Y-132571939D01*
X147117235Y-132616449D01*
X147028214Y-132616449D01*
X146894682Y-132571939D01*
X146805661Y-132482918D01*
X146761151Y-132393897D01*
X146716640Y-132215855D01*
X146716640Y-132082323D01*
X146761151Y-131904281D01*
X146805661Y-131815260D01*
X146894682Y-131726240D01*
X147028214Y-131681729D01*
X147117235Y-131681729D01*
X147250766Y-131726240D01*
X147295277Y-131770750D01*
X147695871Y-132616449D02*
X147695871Y-131681729D01*
X148229997Y-132616449D02*
X147829402Y-132082323D01*
X148229997Y-131681729D02*
X147695871Y-132215855D01*
X149298248Y-132571939D02*
X149431780Y-132616449D01*
X149654332Y-132616449D01*
X149743353Y-132571939D01*
X149787863Y-132527428D01*
X149832374Y-132438407D01*
X149832374Y-132349386D01*
X149787863Y-132260365D01*
X149743353Y-132215855D01*
X149654332Y-132171344D01*
X149476290Y-132126834D01*
X149387269Y-132082323D01*
X149342759Y-132037813D01*
X149298248Y-131948792D01*
X149298248Y-131859771D01*
X149342759Y-131770750D01*
X149387269Y-131726240D01*
X149476290Y-131681729D01*
X149698842Y-131681729D01*
X149832374Y-131726240D01*
X150099437Y-131681729D02*
X150633562Y-131681729D01*
X150366500Y-132616449D02*
X150366500Y-131681729D01*
X150945136Y-132616449D02*
X150945136Y-131681729D01*
X151301220Y-131681729D01*
X151390240Y-131726240D01*
X151434751Y-131770750D01*
X151479261Y-131859771D01*
X151479261Y-131993302D01*
X151434751Y-132082323D01*
X151390240Y-132126834D01*
X151301220Y-132171344D01*
X150945136Y-132171344D01*
X152592023Y-132616449D02*
X152592023Y-131681729D01*
X152814576Y-131681729D01*
X152948107Y-131726240D01*
X153037128Y-131815260D01*
X153081639Y-131904281D01*
X153126149Y-132082323D01*
X153126149Y-132215855D01*
X153081639Y-132393897D01*
X153037128Y-132482918D01*
X152948107Y-132571939D01*
X152814576Y-132616449D01*
X152592023Y-132616449D01*
X153526743Y-132616449D02*
X153526743Y-131681729D01*
X154505974Y-132616449D02*
X154194400Y-132171344D01*
X153971848Y-132616449D02*
X153971848Y-131681729D01*
X154327932Y-131681729D01*
X154416953Y-131726240D01*
X154461463Y-131770750D01*
X154505974Y-131859771D01*
X154505974Y-131993302D01*
X154461463Y-132082323D01*
X154416953Y-132126834D01*
X154327932Y-132171344D01*
X153971848Y-132171344D01*
D11*
X135928928Y-108102961D02*
X135928928Y-106934561D01*
X136318395Y-107769133D01*
X136707861Y-106934561D01*
X136707861Y-108102961D01*
X137486795Y-106934561D02*
X137709347Y-106934561D01*
X137820623Y-106990200D01*
X137931900Y-107101476D01*
X137987538Y-107324028D01*
X137987538Y-107713495D01*
X137931900Y-107936047D01*
X137820623Y-108047323D01*
X137709347Y-108102961D01*
X137486795Y-108102961D01*
X137375519Y-108047323D01*
X137264242Y-107936047D01*
X137208604Y-107713495D01*
X137208604Y-107324028D01*
X137264242Y-107101476D01*
X137375519Y-106990200D01*
X137486795Y-106934561D01*
X138321366Y-106934561D02*
X138989023Y-106934561D01*
X138655195Y-108102961D02*
X138655195Y-106934561D01*
X139601042Y-106934561D02*
X139823595Y-106934561D01*
X139934871Y-106990200D01*
X140046147Y-107101476D01*
X140101785Y-107324028D01*
X140101785Y-107713495D01*
X140046147Y-107936047D01*
X139934871Y-108047323D01*
X139823595Y-108102961D01*
X139601042Y-108102961D01*
X139489766Y-108047323D01*
X139378490Y-107936047D01*
X139322852Y-107713495D01*
X139322852Y-107324028D01*
X139378490Y-107101476D01*
X139489766Y-106990200D01*
X139601042Y-106934561D01*
X141270185Y-108102961D02*
X140880719Y-107546580D01*
X140602528Y-108102961D02*
X140602528Y-106934561D01*
X141047633Y-106934561D01*
X141158909Y-106990200D01*
X141214547Y-107045838D01*
X141270185Y-107157114D01*
X141270185Y-107324028D01*
X141214547Y-107435304D01*
X141158909Y-107490942D01*
X141047633Y-107546580D01*
X140602528Y-107546580D01*
X143328795Y-107991685D02*
X143273157Y-108047323D01*
X143106242Y-108102961D01*
X142994966Y-108102961D01*
X142828052Y-108047323D01*
X142716776Y-107936047D01*
X142661138Y-107824771D01*
X142605500Y-107602219D01*
X142605500Y-107435304D01*
X142661138Y-107212752D01*
X142716776Y-107101476D01*
X142828052Y-106990200D01*
X142994966Y-106934561D01*
X143106242Y-106934561D01*
X143273157Y-106990200D01*
X143328795Y-107045838D01*
X144052090Y-106934561D02*
X144274642Y-106934561D01*
X144385919Y-106990200D01*
X144497195Y-107101476D01*
X144552833Y-107324028D01*
X144552833Y-107713495D01*
X144497195Y-107936047D01*
X144385919Y-108047323D01*
X144274642Y-108102961D01*
X144052090Y-108102961D01*
X143940814Y-108047323D01*
X143829538Y-107936047D01*
X143773900Y-107713495D01*
X143773900Y-107324028D01*
X143829538Y-107101476D01*
X143940814Y-106990200D01*
X144052090Y-106934561D01*
X145053576Y-108102961D02*
X145053576Y-106934561D01*
X145721233Y-108102961D01*
X145721233Y-106934561D01*
X146277614Y-108102961D02*
X146277614Y-106934561D01*
X146945271Y-108102961D01*
X146945271Y-106934561D01*
D10*
X132410054Y-110526729D02*
X132721627Y-111461449D01*
X133033200Y-110526729D01*
X133344774Y-111461449D02*
X133344774Y-110526729D01*
X133656347Y-111194386D01*
X133967920Y-110526729D01*
X133967920Y-111461449D01*
X135614808Y-110571240D02*
X135525787Y-110526729D01*
X135392256Y-110526729D01*
X135258724Y-110571240D01*
X135169703Y-110660260D01*
X135125193Y-110749281D01*
X135080682Y-110927323D01*
X135080682Y-111060855D01*
X135125193Y-111238897D01*
X135169703Y-111327918D01*
X135258724Y-111416939D01*
X135392256Y-111461449D01*
X135481277Y-111461449D01*
X135614808Y-111416939D01*
X135659319Y-111372428D01*
X135659319Y-111060855D01*
X135481277Y-111060855D01*
X136059913Y-111461449D02*
X136059913Y-110526729D01*
X136594039Y-111461449D01*
X136594039Y-110526729D01*
X137039143Y-111461449D02*
X137039143Y-110526729D01*
X137261696Y-110526729D01*
X137395227Y-110571240D01*
X137484248Y-110660260D01*
X137528759Y-110749281D01*
X137573269Y-110927323D01*
X137573269Y-111060855D01*
X137528759Y-111238897D01*
X137484248Y-111327918D01*
X137395227Y-111416939D01*
X137261696Y-111461449D01*
X137039143Y-111461449D01*
X138641520Y-111194386D02*
X139086625Y-111194386D01*
X138552500Y-111461449D02*
X138864073Y-110526729D01*
X139175646Y-111461449D01*
X139442709Y-110615750D02*
X139487220Y-110571240D01*
X139576240Y-110526729D01*
X139798793Y-110526729D01*
X139887814Y-110571240D01*
X139932324Y-110615750D01*
X139976835Y-110704771D01*
X139976835Y-110793792D01*
X139932324Y-110927323D01*
X139398199Y-111461449D01*
X139976835Y-111461449D01*
X141045086Y-111194386D02*
X141490191Y-111194386D01*
X140956065Y-111461449D02*
X141267639Y-110526729D01*
X141579212Y-111461449D01*
X142380400Y-111461449D02*
X141846275Y-111461449D01*
X142113338Y-111461449D02*
X142113338Y-110526729D01*
X142024317Y-110660260D01*
X141935296Y-110749281D01*
X141846275Y-110793792D01*
X143804736Y-110971834D02*
X143938267Y-111016344D01*
X143982778Y-111060855D01*
X144027288Y-111149876D01*
X144027288Y-111283407D01*
X143982778Y-111372428D01*
X143938267Y-111416939D01*
X143849246Y-111461449D01*
X143493162Y-111461449D01*
X143493162Y-110526729D01*
X143804736Y-110526729D01*
X143893757Y-110571240D01*
X143938267Y-110615750D01*
X143982778Y-110704771D01*
X143982778Y-110793792D01*
X143938267Y-110882813D01*
X143893757Y-110927323D01*
X143804736Y-110971834D01*
X143493162Y-110971834D01*
X144917498Y-111461449D02*
X144383372Y-111461449D01*
X144650435Y-111461449D02*
X144650435Y-110526729D01*
X144561414Y-110660260D01*
X144472393Y-110749281D01*
X144383372Y-110793792D01*
X146341833Y-110971834D02*
X146475364Y-111016344D01*
X146519875Y-111060855D01*
X146564385Y-111149876D01*
X146564385Y-111283407D01*
X146519875Y-111372428D01*
X146475364Y-111416939D01*
X146386343Y-111461449D01*
X146030260Y-111461449D01*
X146030260Y-110526729D01*
X146341833Y-110526729D01*
X146430854Y-110571240D01*
X146475364Y-110615750D01*
X146519875Y-110704771D01*
X146519875Y-110793792D01*
X146475364Y-110882813D01*
X146430854Y-110927323D01*
X146341833Y-110971834D01*
X146030260Y-110971834D01*
X146920469Y-110615750D02*
X146964980Y-110571240D01*
X147054000Y-110526729D01*
X147276553Y-110526729D01*
X147365574Y-110571240D01*
X147410084Y-110615750D01*
X147454595Y-110704771D01*
X147454595Y-110793792D01*
X147410084Y-110927323D01*
X146875959Y-111461449D01*
X147454595Y-111461449D01*
X148433825Y-110526729D02*
X148745399Y-111461449D01*
X149056972Y-110526729D01*
X149368545Y-111461449D02*
X149368545Y-110526729D01*
X149991692Y-110526729D02*
X150169734Y-110526729D01*
X150258755Y-110571240D01*
X150347776Y-110660260D01*
X150392286Y-110838302D01*
X150392286Y-111149876D01*
X150347776Y-111327918D01*
X150258755Y-111416939D01*
X150169734Y-111461449D01*
X149991692Y-111461449D01*
X149902671Y-111416939D01*
X149813650Y-111327918D01*
X149769140Y-111149876D01*
X149769140Y-110838302D01*
X149813650Y-110660260D01*
X149902671Y-110571240D01*
X149991692Y-110526729D01*
X151994663Y-110571240D02*
X151905642Y-110526729D01*
X151772111Y-110526729D01*
X151638580Y-110571240D01*
X151549559Y-110660260D01*
X151505048Y-110749281D01*
X151460538Y-110927323D01*
X151460538Y-111060855D01*
X151505048Y-111238897D01*
X151549559Y-111327918D01*
X151638580Y-111416939D01*
X151772111Y-111461449D01*
X151861132Y-111461449D01*
X151994663Y-111416939D01*
X152039174Y-111372428D01*
X152039174Y-111060855D01*
X151861132Y-111060855D01*
X152439768Y-111461449D02*
X152439768Y-110526729D01*
X152973894Y-111461449D01*
X152973894Y-110526729D01*
X153418999Y-111461449D02*
X153418999Y-110526729D01*
X153641551Y-110526729D01*
X153775082Y-110571240D01*
X153864103Y-110660260D01*
X153908614Y-110749281D01*
X153953124Y-110927323D01*
X153953124Y-111060855D01*
X153908614Y-111238897D01*
X153864103Y-111327918D01*
X153775082Y-111416939D01*
X153641551Y-111461449D01*
X153418999Y-111461449D01*
X158250736Y-103126834D02*
X158562309Y-103126834D01*
X158695840Y-103616449D02*
X158250736Y-103616449D01*
X158250736Y-102681729D01*
X158695840Y-102681729D01*
X159096435Y-103616449D02*
X159096435Y-102681729D01*
X159630560Y-103616449D01*
X159630560Y-102681729D01*
X160787833Y-103616449D02*
X160787833Y-102681729D01*
X161099406Y-103349386D01*
X161410980Y-102681729D01*
X161410980Y-103616449D01*
X161811574Y-103571939D02*
X161945105Y-103616449D01*
X162167658Y-103616449D01*
X162256679Y-103571939D01*
X162301189Y-103527428D01*
X162345700Y-103438407D01*
X162345700Y-103349386D01*
X162301189Y-103260365D01*
X162256679Y-103215855D01*
X162167658Y-103171344D01*
X161989616Y-103126834D01*
X161900595Y-103082323D01*
X161856084Y-103037813D01*
X161811574Y-102948792D01*
X161811574Y-102859771D01*
X161856084Y-102770750D01*
X161900595Y-102726240D01*
X161989616Y-102681729D01*
X162212168Y-102681729D01*
X162345700Y-102726240D01*
X163235909Y-103616449D02*
X162701783Y-103616449D01*
X162968846Y-103616449D02*
X162968846Y-102681729D01*
X162879825Y-102815260D01*
X162790804Y-102904281D01*
X162701783Y-102948792D01*
X164348671Y-103616449D02*
X164348671Y-102681729D01*
X164660244Y-103349386D01*
X164971818Y-102681729D01*
X164971818Y-103616449D01*
X165372412Y-103571939D02*
X165505943Y-103616449D01*
X165728496Y-103616449D01*
X165817517Y-103571939D01*
X165862027Y-103527428D01*
X165906538Y-103438407D01*
X165906538Y-103349386D01*
X165862027Y-103260365D01*
X165817517Y-103215855D01*
X165728496Y-103171344D01*
X165550454Y-103126834D01*
X165461433Y-103082323D01*
X165416922Y-103037813D01*
X165372412Y-102948792D01*
X165372412Y-102859771D01*
X165416922Y-102770750D01*
X165461433Y-102726240D01*
X165550454Y-102681729D01*
X165773006Y-102681729D01*
X165906538Y-102726240D01*
X166262621Y-102770750D02*
X166307132Y-102726240D01*
X166396153Y-102681729D01*
X166618705Y-102681729D01*
X166707726Y-102726240D01*
X166752237Y-102770750D01*
X166796747Y-102859771D01*
X166796747Y-102948792D01*
X166752237Y-103082323D01*
X166218111Y-103616449D01*
X166796747Y-103616449D01*
X167775978Y-102681729D02*
X168310103Y-102681729D01*
X168043040Y-103616449D02*
X168043040Y-102681729D01*
X168532656Y-102681729D02*
X169155802Y-103616449D01*
X169155802Y-102681729D02*
X168532656Y-103616449D01*
X170758180Y-103616449D02*
X170446606Y-103171344D01*
X170224054Y-103616449D02*
X170224054Y-102681729D01*
X170580138Y-102681729D01*
X170669159Y-102726240D01*
X170713669Y-102770750D01*
X170758180Y-102859771D01*
X170758180Y-102993302D01*
X170713669Y-103082323D01*
X170669159Y-103126834D01*
X170580138Y-103171344D01*
X170224054Y-103171344D01*
X171069753Y-102681729D02*
X171692900Y-103616449D01*
X171692900Y-102681729D02*
X171069753Y-103616449D01*
X173295277Y-103527428D02*
X173250766Y-103571939D01*
X173117235Y-103616449D01*
X173028214Y-103616449D01*
X172894682Y-103571939D01*
X172805661Y-103482918D01*
X172761151Y-103393897D01*
X172716640Y-103215855D01*
X172716640Y-103082323D01*
X172761151Y-102904281D01*
X172805661Y-102815260D01*
X172894682Y-102726240D01*
X173028214Y-102681729D01*
X173117235Y-102681729D01*
X173250766Y-102726240D01*
X173295277Y-102770750D01*
X173695871Y-103616449D02*
X173695871Y-102681729D01*
X174229997Y-103616449D02*
X173829402Y-103082323D01*
X174229997Y-102681729D02*
X173695871Y-103215855D01*
X175298248Y-103571939D02*
X175431780Y-103616449D01*
X175654332Y-103616449D01*
X175743353Y-103571939D01*
X175787863Y-103527428D01*
X175832374Y-103438407D01*
X175832374Y-103349386D01*
X175787863Y-103260365D01*
X175743353Y-103215855D01*
X175654332Y-103171344D01*
X175476290Y-103126834D01*
X175387269Y-103082323D01*
X175342759Y-103037813D01*
X175298248Y-102948792D01*
X175298248Y-102859771D01*
X175342759Y-102770750D01*
X175387269Y-102726240D01*
X175476290Y-102681729D01*
X175698842Y-102681729D01*
X175832374Y-102726240D01*
X176099437Y-102681729D02*
X176633562Y-102681729D01*
X176366500Y-103616449D02*
X176366500Y-102681729D01*
X176945136Y-103616449D02*
X176945136Y-102681729D01*
X177301220Y-102681729D01*
X177390240Y-102726240D01*
X177434751Y-102770750D01*
X177479261Y-102859771D01*
X177479261Y-102993302D01*
X177434751Y-103082323D01*
X177390240Y-103126834D01*
X177301220Y-103171344D01*
X176945136Y-103171344D01*
X178592023Y-103616449D02*
X178592023Y-102681729D01*
X178814576Y-102681729D01*
X178948107Y-102726240D01*
X179037128Y-102815260D01*
X179081639Y-102904281D01*
X179126149Y-103082323D01*
X179126149Y-103215855D01*
X179081639Y-103393897D01*
X179037128Y-103482918D01*
X178948107Y-103571939D01*
X178814576Y-103616449D01*
X178592023Y-103616449D01*
X179526743Y-103616449D02*
X179526743Y-102681729D01*
X180505974Y-103616449D02*
X180194400Y-103171344D01*
X179971848Y-103616449D02*
X179971848Y-102681729D01*
X180327932Y-102681729D01*
X180416953Y-102726240D01*
X180461463Y-102770750D01*
X180505974Y-102859771D01*
X180505974Y-102993302D01*
X180461463Y-103082323D01*
X180416953Y-103126834D01*
X180327932Y-103171344D01*
X179971848Y-103171344D01*
D11*
X161928928Y-79102961D02*
X161928928Y-77934561D01*
X162318395Y-78769133D01*
X162707861Y-77934561D01*
X162707861Y-79102961D01*
X163486795Y-77934561D02*
X163709347Y-77934561D01*
X163820623Y-77990200D01*
X163931900Y-78101476D01*
X163987538Y-78324028D01*
X163987538Y-78713495D01*
X163931900Y-78936047D01*
X163820623Y-79047323D01*
X163709347Y-79102961D01*
X163486795Y-79102961D01*
X163375519Y-79047323D01*
X163264242Y-78936047D01*
X163208604Y-78713495D01*
X163208604Y-78324028D01*
X163264242Y-78101476D01*
X163375519Y-77990200D01*
X163486795Y-77934561D01*
X164321366Y-77934561D02*
X164989023Y-77934561D01*
X164655195Y-79102961D02*
X164655195Y-77934561D01*
X165601042Y-77934561D02*
X165823595Y-77934561D01*
X165934871Y-77990200D01*
X166046147Y-78101476D01*
X166101785Y-78324028D01*
X166101785Y-78713495D01*
X166046147Y-78936047D01*
X165934871Y-79047323D01*
X165823595Y-79102961D01*
X165601042Y-79102961D01*
X165489766Y-79047323D01*
X165378490Y-78936047D01*
X165322852Y-78713495D01*
X165322852Y-78324028D01*
X165378490Y-78101476D01*
X165489766Y-77990200D01*
X165601042Y-77934561D01*
X167270185Y-79102961D02*
X166880719Y-78546580D01*
X166602528Y-79102961D02*
X166602528Y-77934561D01*
X167047633Y-77934561D01*
X167158909Y-77990200D01*
X167214547Y-78045838D01*
X167270185Y-78157114D01*
X167270185Y-78324028D01*
X167214547Y-78435304D01*
X167158909Y-78490942D01*
X167047633Y-78546580D01*
X166602528Y-78546580D01*
X169328795Y-78991685D02*
X169273157Y-79047323D01*
X169106242Y-79102961D01*
X168994966Y-79102961D01*
X168828052Y-79047323D01*
X168716776Y-78936047D01*
X168661138Y-78824771D01*
X168605500Y-78602219D01*
X168605500Y-78435304D01*
X168661138Y-78212752D01*
X168716776Y-78101476D01*
X168828052Y-77990200D01*
X168994966Y-77934561D01*
X169106242Y-77934561D01*
X169273157Y-77990200D01*
X169328795Y-78045838D01*
X170052090Y-77934561D02*
X170274642Y-77934561D01*
X170385919Y-77990200D01*
X170497195Y-78101476D01*
X170552833Y-78324028D01*
X170552833Y-78713495D01*
X170497195Y-78936047D01*
X170385919Y-79047323D01*
X170274642Y-79102961D01*
X170052090Y-79102961D01*
X169940814Y-79047323D01*
X169829538Y-78936047D01*
X169773900Y-78713495D01*
X169773900Y-78324028D01*
X169829538Y-78101476D01*
X169940814Y-77990200D01*
X170052090Y-77934561D01*
X171053576Y-79102961D02*
X171053576Y-77934561D01*
X171721233Y-79102961D01*
X171721233Y-77934561D01*
X172277614Y-79102961D02*
X172277614Y-77934561D01*
X172945271Y-79102961D01*
X172945271Y-77934561D01*
D10*
X158410054Y-81526729D02*
X158721627Y-82461449D01*
X159033200Y-81526729D01*
X159344774Y-82461449D02*
X159344774Y-81526729D01*
X159656347Y-82194386D01*
X159967920Y-81526729D01*
X159967920Y-82461449D01*
X161614808Y-81571240D02*
X161525787Y-81526729D01*
X161392256Y-81526729D01*
X161258724Y-81571240D01*
X161169703Y-81660260D01*
X161125193Y-81749281D01*
X161080682Y-81927323D01*
X161080682Y-82060855D01*
X161125193Y-82238897D01*
X161169703Y-82327918D01*
X161258724Y-82416939D01*
X161392256Y-82461449D01*
X161481277Y-82461449D01*
X161614808Y-82416939D01*
X161659319Y-82372428D01*
X161659319Y-82060855D01*
X161481277Y-82060855D01*
X162059913Y-82461449D02*
X162059913Y-81526729D01*
X162594039Y-82461449D01*
X162594039Y-81526729D01*
X163039143Y-82461449D02*
X163039143Y-81526729D01*
X163261696Y-81526729D01*
X163395227Y-81571240D01*
X163484248Y-81660260D01*
X163528759Y-81749281D01*
X163573269Y-81927323D01*
X163573269Y-82060855D01*
X163528759Y-82238897D01*
X163484248Y-82327918D01*
X163395227Y-82416939D01*
X163261696Y-82461449D01*
X163039143Y-82461449D01*
X164641520Y-82194386D02*
X165086625Y-82194386D01*
X164552500Y-82461449D02*
X164864073Y-81526729D01*
X165175646Y-82461449D01*
X165442709Y-81615750D02*
X165487220Y-81571240D01*
X165576240Y-81526729D01*
X165798793Y-81526729D01*
X165887814Y-81571240D01*
X165932324Y-81615750D01*
X165976835Y-81704771D01*
X165976835Y-81793792D01*
X165932324Y-81927323D01*
X165398199Y-82461449D01*
X165976835Y-82461449D01*
X167045086Y-82194386D02*
X167490191Y-82194386D01*
X166956065Y-82461449D02*
X167267639Y-81526729D01*
X167579212Y-82461449D01*
X168380400Y-82461449D02*
X167846275Y-82461449D01*
X168113338Y-82461449D02*
X168113338Y-81526729D01*
X168024317Y-81660260D01*
X167935296Y-81749281D01*
X167846275Y-81793792D01*
X169804736Y-81971834D02*
X169938267Y-82016344D01*
X169982778Y-82060855D01*
X170027288Y-82149876D01*
X170027288Y-82283407D01*
X169982778Y-82372428D01*
X169938267Y-82416939D01*
X169849246Y-82461449D01*
X169493162Y-82461449D01*
X169493162Y-81526729D01*
X169804736Y-81526729D01*
X169893757Y-81571240D01*
X169938267Y-81615750D01*
X169982778Y-81704771D01*
X169982778Y-81793792D01*
X169938267Y-81882813D01*
X169893757Y-81927323D01*
X169804736Y-81971834D01*
X169493162Y-81971834D01*
X170917498Y-82461449D02*
X170383372Y-82461449D01*
X170650435Y-82461449D02*
X170650435Y-81526729D01*
X170561414Y-81660260D01*
X170472393Y-81749281D01*
X170383372Y-81793792D01*
X172341833Y-81971834D02*
X172475364Y-82016344D01*
X172519875Y-82060855D01*
X172564385Y-82149876D01*
X172564385Y-82283407D01*
X172519875Y-82372428D01*
X172475364Y-82416939D01*
X172386343Y-82461449D01*
X172030260Y-82461449D01*
X172030260Y-81526729D01*
X172341833Y-81526729D01*
X172430854Y-81571240D01*
X172475364Y-81615750D01*
X172519875Y-81704771D01*
X172519875Y-81793792D01*
X172475364Y-81882813D01*
X172430854Y-81927323D01*
X172341833Y-81971834D01*
X172030260Y-81971834D01*
X172920469Y-81615750D02*
X172964980Y-81571240D01*
X173054000Y-81526729D01*
X173276553Y-81526729D01*
X173365574Y-81571240D01*
X173410084Y-81615750D01*
X173454595Y-81704771D01*
X173454595Y-81793792D01*
X173410084Y-81927323D01*
X172875959Y-82461449D01*
X173454595Y-82461449D01*
X174433825Y-81526729D02*
X174745399Y-82461449D01*
X175056972Y-81526729D01*
X175368545Y-82461449D02*
X175368545Y-81526729D01*
X175991692Y-81526729D02*
X176169734Y-81526729D01*
X176258755Y-81571240D01*
X176347776Y-81660260D01*
X176392286Y-81838302D01*
X176392286Y-82149876D01*
X176347776Y-82327918D01*
X176258755Y-82416939D01*
X176169734Y-82461449D01*
X175991692Y-82461449D01*
X175902671Y-82416939D01*
X175813650Y-82327918D01*
X175769140Y-82149876D01*
X175769140Y-81838302D01*
X175813650Y-81660260D01*
X175902671Y-81571240D01*
X175991692Y-81526729D01*
X177994663Y-81571240D02*
X177905642Y-81526729D01*
X177772111Y-81526729D01*
X177638580Y-81571240D01*
X177549559Y-81660260D01*
X177505048Y-81749281D01*
X177460538Y-81927323D01*
X177460538Y-82060855D01*
X177505048Y-82238897D01*
X177549559Y-82327918D01*
X177638580Y-82416939D01*
X177772111Y-82461449D01*
X177861132Y-82461449D01*
X177994663Y-82416939D01*
X178039174Y-82372428D01*
X178039174Y-82060855D01*
X177861132Y-82060855D01*
X178439768Y-82461449D02*
X178439768Y-81526729D01*
X178973894Y-82461449D01*
X178973894Y-81526729D01*
X179418999Y-82461449D02*
X179418999Y-81526729D01*
X179641551Y-81526729D01*
X179775082Y-81571240D01*
X179864103Y-81660260D01*
X179908614Y-81749281D01*
X179953124Y-81927323D01*
X179953124Y-82060855D01*
X179908614Y-82238897D01*
X179864103Y-82327918D01*
X179775082Y-82416939D01*
X179641551Y-82461449D01*
X179418999Y-82461449D01*
X184250736Y-103126834D02*
X184562309Y-103126834D01*
X184695840Y-103616449D02*
X184250736Y-103616449D01*
X184250736Y-102681729D01*
X184695840Y-102681729D01*
X185096435Y-103616449D02*
X185096435Y-102681729D01*
X185630560Y-103616449D01*
X185630560Y-102681729D01*
X186787833Y-103616449D02*
X186787833Y-102681729D01*
X187099406Y-103349386D01*
X187410980Y-102681729D01*
X187410980Y-103616449D01*
X187811574Y-103571939D02*
X187945105Y-103616449D01*
X188167658Y-103616449D01*
X188256679Y-103571939D01*
X188301189Y-103527428D01*
X188345700Y-103438407D01*
X188345700Y-103349386D01*
X188301189Y-103260365D01*
X188256679Y-103215855D01*
X188167658Y-103171344D01*
X187989616Y-103126834D01*
X187900595Y-103082323D01*
X187856084Y-103037813D01*
X187811574Y-102948792D01*
X187811574Y-102859771D01*
X187856084Y-102770750D01*
X187900595Y-102726240D01*
X187989616Y-102681729D01*
X188212168Y-102681729D01*
X188345700Y-102726240D01*
X189235909Y-103616449D02*
X188701783Y-103616449D01*
X188968846Y-103616449D02*
X188968846Y-102681729D01*
X188879825Y-102815260D01*
X188790804Y-102904281D01*
X188701783Y-102948792D01*
X190348671Y-103616449D02*
X190348671Y-102681729D01*
X190660244Y-103349386D01*
X190971818Y-102681729D01*
X190971818Y-103616449D01*
X191372412Y-103571939D02*
X191505943Y-103616449D01*
X191728496Y-103616449D01*
X191817517Y-103571939D01*
X191862027Y-103527428D01*
X191906538Y-103438407D01*
X191906538Y-103349386D01*
X191862027Y-103260365D01*
X191817517Y-103215855D01*
X191728496Y-103171344D01*
X191550454Y-103126834D01*
X191461433Y-103082323D01*
X191416922Y-103037813D01*
X191372412Y-102948792D01*
X191372412Y-102859771D01*
X191416922Y-102770750D01*
X191461433Y-102726240D01*
X191550454Y-102681729D01*
X191773006Y-102681729D01*
X191906538Y-102726240D01*
X192262621Y-102770750D02*
X192307132Y-102726240D01*
X192396153Y-102681729D01*
X192618705Y-102681729D01*
X192707726Y-102726240D01*
X192752237Y-102770750D01*
X192796747Y-102859771D01*
X192796747Y-102948792D01*
X192752237Y-103082323D01*
X192218111Y-103616449D01*
X192796747Y-103616449D01*
X193775978Y-102681729D02*
X194310103Y-102681729D01*
X194043040Y-103616449D02*
X194043040Y-102681729D01*
X194532656Y-102681729D02*
X195155802Y-103616449D01*
X195155802Y-102681729D02*
X194532656Y-103616449D01*
X196758180Y-103616449D02*
X196446606Y-103171344D01*
X196224054Y-103616449D02*
X196224054Y-102681729D01*
X196580138Y-102681729D01*
X196669159Y-102726240D01*
X196713669Y-102770750D01*
X196758180Y-102859771D01*
X196758180Y-102993302D01*
X196713669Y-103082323D01*
X196669159Y-103126834D01*
X196580138Y-103171344D01*
X196224054Y-103171344D01*
X197069753Y-102681729D02*
X197692900Y-103616449D01*
X197692900Y-102681729D02*
X197069753Y-103616449D01*
X199295277Y-103527428D02*
X199250766Y-103571939D01*
X199117235Y-103616449D01*
X199028214Y-103616449D01*
X198894682Y-103571939D01*
X198805661Y-103482918D01*
X198761151Y-103393897D01*
X198716640Y-103215855D01*
X198716640Y-103082323D01*
X198761151Y-102904281D01*
X198805661Y-102815260D01*
X198894682Y-102726240D01*
X199028214Y-102681729D01*
X199117235Y-102681729D01*
X199250766Y-102726240D01*
X199295277Y-102770750D01*
X199695871Y-103616449D02*
X199695871Y-102681729D01*
X200229997Y-103616449D02*
X199829402Y-103082323D01*
X200229997Y-102681729D02*
X199695871Y-103215855D01*
X201298248Y-103571939D02*
X201431780Y-103616449D01*
X201654332Y-103616449D01*
X201743353Y-103571939D01*
X201787863Y-103527428D01*
X201832374Y-103438407D01*
X201832374Y-103349386D01*
X201787863Y-103260365D01*
X201743353Y-103215855D01*
X201654332Y-103171344D01*
X201476290Y-103126834D01*
X201387269Y-103082323D01*
X201342759Y-103037813D01*
X201298248Y-102948792D01*
X201298248Y-102859771D01*
X201342759Y-102770750D01*
X201387269Y-102726240D01*
X201476290Y-102681729D01*
X201698842Y-102681729D01*
X201832374Y-102726240D01*
X202099437Y-102681729D02*
X202633562Y-102681729D01*
X202366500Y-103616449D02*
X202366500Y-102681729D01*
X202945136Y-103616449D02*
X202945136Y-102681729D01*
X203301220Y-102681729D01*
X203390240Y-102726240D01*
X203434751Y-102770750D01*
X203479261Y-102859771D01*
X203479261Y-102993302D01*
X203434751Y-103082323D01*
X203390240Y-103126834D01*
X203301220Y-103171344D01*
X202945136Y-103171344D01*
X204592023Y-103616449D02*
X204592023Y-102681729D01*
X204814576Y-102681729D01*
X204948107Y-102726240D01*
X205037128Y-102815260D01*
X205081639Y-102904281D01*
X205126149Y-103082323D01*
X205126149Y-103215855D01*
X205081639Y-103393897D01*
X205037128Y-103482918D01*
X204948107Y-103571939D01*
X204814576Y-103616449D01*
X204592023Y-103616449D01*
X205526743Y-103616449D02*
X205526743Y-102681729D01*
X206505974Y-103616449D02*
X206194400Y-103171344D01*
X205971848Y-103616449D02*
X205971848Y-102681729D01*
X206327932Y-102681729D01*
X206416953Y-102726240D01*
X206461463Y-102770750D01*
X206505974Y-102859771D01*
X206505974Y-102993302D01*
X206461463Y-103082323D01*
X206416953Y-103126834D01*
X206327932Y-103171344D01*
X205971848Y-103171344D01*
D11*
X187928928Y-79102961D02*
X187928928Y-77934561D01*
X188318395Y-78769133D01*
X188707861Y-77934561D01*
X188707861Y-79102961D01*
X189486795Y-77934561D02*
X189709347Y-77934561D01*
X189820623Y-77990200D01*
X189931900Y-78101476D01*
X189987538Y-78324028D01*
X189987538Y-78713495D01*
X189931900Y-78936047D01*
X189820623Y-79047323D01*
X189709347Y-79102961D01*
X189486795Y-79102961D01*
X189375519Y-79047323D01*
X189264242Y-78936047D01*
X189208604Y-78713495D01*
X189208604Y-78324028D01*
X189264242Y-78101476D01*
X189375519Y-77990200D01*
X189486795Y-77934561D01*
X190321366Y-77934561D02*
X190989023Y-77934561D01*
X190655195Y-79102961D02*
X190655195Y-77934561D01*
X191601042Y-77934561D02*
X191823595Y-77934561D01*
X191934871Y-77990200D01*
X192046147Y-78101476D01*
X192101785Y-78324028D01*
X192101785Y-78713495D01*
X192046147Y-78936047D01*
X191934871Y-79047323D01*
X191823595Y-79102961D01*
X191601042Y-79102961D01*
X191489766Y-79047323D01*
X191378490Y-78936047D01*
X191322852Y-78713495D01*
X191322852Y-78324028D01*
X191378490Y-78101476D01*
X191489766Y-77990200D01*
X191601042Y-77934561D01*
X193270185Y-79102961D02*
X192880719Y-78546580D01*
X192602528Y-79102961D02*
X192602528Y-77934561D01*
X193047633Y-77934561D01*
X193158909Y-77990200D01*
X193214547Y-78045838D01*
X193270185Y-78157114D01*
X193270185Y-78324028D01*
X193214547Y-78435304D01*
X193158909Y-78490942D01*
X193047633Y-78546580D01*
X192602528Y-78546580D01*
X195328795Y-78991685D02*
X195273157Y-79047323D01*
X195106242Y-79102961D01*
X194994966Y-79102961D01*
X194828052Y-79047323D01*
X194716776Y-78936047D01*
X194661138Y-78824771D01*
X194605500Y-78602219D01*
X194605500Y-78435304D01*
X194661138Y-78212752D01*
X194716776Y-78101476D01*
X194828052Y-77990200D01*
X194994966Y-77934561D01*
X195106242Y-77934561D01*
X195273157Y-77990200D01*
X195328795Y-78045838D01*
X196052090Y-77934561D02*
X196274642Y-77934561D01*
X196385919Y-77990200D01*
X196497195Y-78101476D01*
X196552833Y-78324028D01*
X196552833Y-78713495D01*
X196497195Y-78936047D01*
X196385919Y-79047323D01*
X196274642Y-79102961D01*
X196052090Y-79102961D01*
X195940814Y-79047323D01*
X195829538Y-78936047D01*
X195773900Y-78713495D01*
X195773900Y-78324028D01*
X195829538Y-78101476D01*
X195940814Y-77990200D01*
X196052090Y-77934561D01*
X197053576Y-79102961D02*
X197053576Y-77934561D01*
X197721233Y-79102961D01*
X197721233Y-77934561D01*
X198277614Y-79102961D02*
X198277614Y-77934561D01*
X198945271Y-79102961D01*
X198945271Y-77934561D01*
D10*
X184410054Y-81526729D02*
X184721627Y-82461449D01*
X185033200Y-81526729D01*
X185344774Y-82461449D02*
X185344774Y-81526729D01*
X185656347Y-82194386D01*
X185967920Y-81526729D01*
X185967920Y-82461449D01*
X187614808Y-81571240D02*
X187525787Y-81526729D01*
X187392256Y-81526729D01*
X187258724Y-81571240D01*
X187169703Y-81660260D01*
X187125193Y-81749281D01*
X187080682Y-81927323D01*
X187080682Y-82060855D01*
X187125193Y-82238897D01*
X187169703Y-82327918D01*
X187258724Y-82416939D01*
X187392256Y-82461449D01*
X187481277Y-82461449D01*
X187614808Y-82416939D01*
X187659319Y-82372428D01*
X187659319Y-82060855D01*
X187481277Y-82060855D01*
X188059913Y-82461449D02*
X188059913Y-81526729D01*
X188594039Y-82461449D01*
X188594039Y-81526729D01*
X189039143Y-82461449D02*
X189039143Y-81526729D01*
X189261696Y-81526729D01*
X189395227Y-81571240D01*
X189484248Y-81660260D01*
X189528759Y-81749281D01*
X189573269Y-81927323D01*
X189573269Y-82060855D01*
X189528759Y-82238897D01*
X189484248Y-82327918D01*
X189395227Y-82416939D01*
X189261696Y-82461449D01*
X189039143Y-82461449D01*
X190641520Y-82194386D02*
X191086625Y-82194386D01*
X190552500Y-82461449D02*
X190864073Y-81526729D01*
X191175646Y-82461449D01*
X191442709Y-81615750D02*
X191487220Y-81571240D01*
X191576240Y-81526729D01*
X191798793Y-81526729D01*
X191887814Y-81571240D01*
X191932324Y-81615750D01*
X191976835Y-81704771D01*
X191976835Y-81793792D01*
X191932324Y-81927323D01*
X191398199Y-82461449D01*
X191976835Y-82461449D01*
X193045086Y-82194386D02*
X193490191Y-82194386D01*
X192956065Y-82461449D02*
X193267639Y-81526729D01*
X193579212Y-82461449D01*
X194380400Y-82461449D02*
X193846275Y-82461449D01*
X194113338Y-82461449D02*
X194113338Y-81526729D01*
X194024317Y-81660260D01*
X193935296Y-81749281D01*
X193846275Y-81793792D01*
X195804736Y-81971834D02*
X195938267Y-82016344D01*
X195982778Y-82060855D01*
X196027288Y-82149876D01*
X196027288Y-82283407D01*
X195982778Y-82372428D01*
X195938267Y-82416939D01*
X195849246Y-82461449D01*
X195493162Y-82461449D01*
X195493162Y-81526729D01*
X195804736Y-81526729D01*
X195893757Y-81571240D01*
X195938267Y-81615750D01*
X195982778Y-81704771D01*
X195982778Y-81793792D01*
X195938267Y-81882813D01*
X195893757Y-81927323D01*
X195804736Y-81971834D01*
X195493162Y-81971834D01*
X196917498Y-82461449D02*
X196383372Y-82461449D01*
X196650435Y-82461449D02*
X196650435Y-81526729D01*
X196561414Y-81660260D01*
X196472393Y-81749281D01*
X196383372Y-81793792D01*
X198341833Y-81971834D02*
X198475364Y-82016344D01*
X198519875Y-82060855D01*
X198564385Y-82149876D01*
X198564385Y-82283407D01*
X198519875Y-82372428D01*
X198475364Y-82416939D01*
X198386343Y-82461449D01*
X198030260Y-82461449D01*
X198030260Y-81526729D01*
X198341833Y-81526729D01*
X198430854Y-81571240D01*
X198475364Y-81615750D01*
X198519875Y-81704771D01*
X198519875Y-81793792D01*
X198475364Y-81882813D01*
X198430854Y-81927323D01*
X198341833Y-81971834D01*
X198030260Y-81971834D01*
X198920469Y-81615750D02*
X198964980Y-81571240D01*
X199054000Y-81526729D01*
X199276553Y-81526729D01*
X199365574Y-81571240D01*
X199410084Y-81615750D01*
X199454595Y-81704771D01*
X199454595Y-81793792D01*
X199410084Y-81927323D01*
X198875959Y-82461449D01*
X199454595Y-82461449D01*
X200433825Y-81526729D02*
X200745399Y-82461449D01*
X201056972Y-81526729D01*
X201368545Y-82461449D02*
X201368545Y-81526729D01*
X201991692Y-81526729D02*
X202169734Y-81526729D01*
X202258755Y-81571240D01*
X202347776Y-81660260D01*
X202392286Y-81838302D01*
X202392286Y-82149876D01*
X202347776Y-82327918D01*
X202258755Y-82416939D01*
X202169734Y-82461449D01*
X201991692Y-82461449D01*
X201902671Y-82416939D01*
X201813650Y-82327918D01*
X201769140Y-82149876D01*
X201769140Y-81838302D01*
X201813650Y-81660260D01*
X201902671Y-81571240D01*
X201991692Y-81526729D01*
X203994663Y-81571240D02*
X203905642Y-81526729D01*
X203772111Y-81526729D01*
X203638580Y-81571240D01*
X203549559Y-81660260D01*
X203505048Y-81749281D01*
X203460538Y-81927323D01*
X203460538Y-82060855D01*
X203505048Y-82238897D01*
X203549559Y-82327918D01*
X203638580Y-82416939D01*
X203772111Y-82461449D01*
X203861132Y-82461449D01*
X203994663Y-82416939D01*
X204039174Y-82372428D01*
X204039174Y-82060855D01*
X203861132Y-82060855D01*
X204439768Y-82461449D02*
X204439768Y-81526729D01*
X204973894Y-82461449D01*
X204973894Y-81526729D01*
X205418999Y-82461449D02*
X205418999Y-81526729D01*
X205641551Y-81526729D01*
X205775082Y-81571240D01*
X205864103Y-81660260D01*
X205908614Y-81749281D01*
X205953124Y-81927323D01*
X205953124Y-82060855D01*
X205908614Y-82238897D01*
X205864103Y-82327918D01*
X205775082Y-82416939D01*
X205641551Y-82461449D01*
X205418999Y-82461449D01*
X158250736Y-132126834D02*
X158562309Y-132126834D01*
X158695840Y-132616449D02*
X158250736Y-132616449D01*
X158250736Y-131681729D01*
X158695840Y-131681729D01*
X159096435Y-132616449D02*
X159096435Y-131681729D01*
X159630560Y-132616449D01*
X159630560Y-131681729D01*
X160787833Y-132616449D02*
X160787833Y-131681729D01*
X161099406Y-132349386D01*
X161410980Y-131681729D01*
X161410980Y-132616449D01*
X161811574Y-132571939D02*
X161945105Y-132616449D01*
X162167658Y-132616449D01*
X162256679Y-132571939D01*
X162301189Y-132527428D01*
X162345700Y-132438407D01*
X162345700Y-132349386D01*
X162301189Y-132260365D01*
X162256679Y-132215855D01*
X162167658Y-132171344D01*
X161989616Y-132126834D01*
X161900595Y-132082323D01*
X161856084Y-132037813D01*
X161811574Y-131948792D01*
X161811574Y-131859771D01*
X161856084Y-131770750D01*
X161900595Y-131726240D01*
X161989616Y-131681729D01*
X162212168Y-131681729D01*
X162345700Y-131726240D01*
X163235909Y-132616449D02*
X162701783Y-132616449D01*
X162968846Y-132616449D02*
X162968846Y-131681729D01*
X162879825Y-131815260D01*
X162790804Y-131904281D01*
X162701783Y-131948792D01*
X164348671Y-132616449D02*
X164348671Y-131681729D01*
X164660244Y-132349386D01*
X164971818Y-131681729D01*
X164971818Y-132616449D01*
X165372412Y-132571939D02*
X165505943Y-132616449D01*
X165728496Y-132616449D01*
X165817517Y-132571939D01*
X165862027Y-132527428D01*
X165906538Y-132438407D01*
X165906538Y-132349386D01*
X165862027Y-132260365D01*
X165817517Y-132215855D01*
X165728496Y-132171344D01*
X165550454Y-132126834D01*
X165461433Y-132082323D01*
X165416922Y-132037813D01*
X165372412Y-131948792D01*
X165372412Y-131859771D01*
X165416922Y-131770750D01*
X165461433Y-131726240D01*
X165550454Y-131681729D01*
X165773006Y-131681729D01*
X165906538Y-131726240D01*
X166262621Y-131770750D02*
X166307132Y-131726240D01*
X166396153Y-131681729D01*
X166618705Y-131681729D01*
X166707726Y-131726240D01*
X166752237Y-131770750D01*
X166796747Y-131859771D01*
X166796747Y-131948792D01*
X166752237Y-132082323D01*
X166218111Y-132616449D01*
X166796747Y-132616449D01*
X167775978Y-131681729D02*
X168310103Y-131681729D01*
X168043040Y-132616449D02*
X168043040Y-131681729D01*
X168532656Y-131681729D02*
X169155802Y-132616449D01*
X169155802Y-131681729D02*
X168532656Y-132616449D01*
X170758180Y-132616449D02*
X170446606Y-132171344D01*
X170224054Y-132616449D02*
X170224054Y-131681729D01*
X170580138Y-131681729D01*
X170669159Y-131726240D01*
X170713669Y-131770750D01*
X170758180Y-131859771D01*
X170758180Y-131993302D01*
X170713669Y-132082323D01*
X170669159Y-132126834D01*
X170580138Y-132171344D01*
X170224054Y-132171344D01*
X171069753Y-131681729D02*
X171692900Y-132616449D01*
X171692900Y-131681729D02*
X171069753Y-132616449D01*
X173295277Y-132527428D02*
X173250766Y-132571939D01*
X173117235Y-132616449D01*
X173028214Y-132616449D01*
X172894682Y-132571939D01*
X172805661Y-132482918D01*
X172761151Y-132393897D01*
X172716640Y-132215855D01*
X172716640Y-132082323D01*
X172761151Y-131904281D01*
X172805661Y-131815260D01*
X172894682Y-131726240D01*
X173028214Y-131681729D01*
X173117235Y-131681729D01*
X173250766Y-131726240D01*
X173295277Y-131770750D01*
X173695871Y-132616449D02*
X173695871Y-131681729D01*
X174229997Y-132616449D02*
X173829402Y-132082323D01*
X174229997Y-131681729D02*
X173695871Y-132215855D01*
X175298248Y-132571939D02*
X175431780Y-132616449D01*
X175654332Y-132616449D01*
X175743353Y-132571939D01*
X175787863Y-132527428D01*
X175832374Y-132438407D01*
X175832374Y-132349386D01*
X175787863Y-132260365D01*
X175743353Y-132215855D01*
X175654332Y-132171344D01*
X175476290Y-132126834D01*
X175387269Y-132082323D01*
X175342759Y-132037813D01*
X175298248Y-131948792D01*
X175298248Y-131859771D01*
X175342759Y-131770750D01*
X175387269Y-131726240D01*
X175476290Y-131681729D01*
X175698842Y-131681729D01*
X175832374Y-131726240D01*
X176099437Y-131681729D02*
X176633562Y-131681729D01*
X176366500Y-132616449D02*
X176366500Y-131681729D01*
X176945136Y-132616449D02*
X176945136Y-131681729D01*
X177301220Y-131681729D01*
X177390240Y-131726240D01*
X177434751Y-131770750D01*
X177479261Y-131859771D01*
X177479261Y-131993302D01*
X177434751Y-132082323D01*
X177390240Y-132126834D01*
X177301220Y-132171344D01*
X176945136Y-132171344D01*
X178592023Y-132616449D02*
X178592023Y-131681729D01*
X178814576Y-131681729D01*
X178948107Y-131726240D01*
X179037128Y-131815260D01*
X179081639Y-131904281D01*
X179126149Y-132082323D01*
X179126149Y-132215855D01*
X179081639Y-132393897D01*
X179037128Y-132482918D01*
X178948107Y-132571939D01*
X178814576Y-132616449D01*
X178592023Y-132616449D01*
X179526743Y-132616449D02*
X179526743Y-131681729D01*
X180505974Y-132616449D02*
X180194400Y-132171344D01*
X179971848Y-132616449D02*
X179971848Y-131681729D01*
X180327932Y-131681729D01*
X180416953Y-131726240D01*
X180461463Y-131770750D01*
X180505974Y-131859771D01*
X180505974Y-131993302D01*
X180461463Y-132082323D01*
X180416953Y-132126834D01*
X180327932Y-132171344D01*
X179971848Y-132171344D01*
D11*
X161928928Y-108102961D02*
X161928928Y-106934561D01*
X162318395Y-107769133D01*
X162707861Y-106934561D01*
X162707861Y-108102961D01*
X163486795Y-106934561D02*
X163709347Y-106934561D01*
X163820623Y-106990200D01*
X163931900Y-107101476D01*
X163987538Y-107324028D01*
X163987538Y-107713495D01*
X163931900Y-107936047D01*
X163820623Y-108047323D01*
X163709347Y-108102961D01*
X163486795Y-108102961D01*
X163375519Y-108047323D01*
X163264242Y-107936047D01*
X163208604Y-107713495D01*
X163208604Y-107324028D01*
X163264242Y-107101476D01*
X163375519Y-106990200D01*
X163486795Y-106934561D01*
X164321366Y-106934561D02*
X164989023Y-106934561D01*
X164655195Y-108102961D02*
X164655195Y-106934561D01*
X165601042Y-106934561D02*
X165823595Y-106934561D01*
X165934871Y-106990200D01*
X166046147Y-107101476D01*
X166101785Y-107324028D01*
X166101785Y-107713495D01*
X166046147Y-107936047D01*
X165934871Y-108047323D01*
X165823595Y-108102961D01*
X165601042Y-108102961D01*
X165489766Y-108047323D01*
X165378490Y-107936047D01*
X165322852Y-107713495D01*
X165322852Y-107324028D01*
X165378490Y-107101476D01*
X165489766Y-106990200D01*
X165601042Y-106934561D01*
X167270185Y-108102961D02*
X166880719Y-107546580D01*
X166602528Y-108102961D02*
X166602528Y-106934561D01*
X167047633Y-106934561D01*
X167158909Y-106990200D01*
X167214547Y-107045838D01*
X167270185Y-107157114D01*
X167270185Y-107324028D01*
X167214547Y-107435304D01*
X167158909Y-107490942D01*
X167047633Y-107546580D01*
X166602528Y-107546580D01*
X169328795Y-107991685D02*
X169273157Y-108047323D01*
X169106242Y-108102961D01*
X168994966Y-108102961D01*
X168828052Y-108047323D01*
X168716776Y-107936047D01*
X168661138Y-107824771D01*
X168605500Y-107602219D01*
X168605500Y-107435304D01*
X168661138Y-107212752D01*
X168716776Y-107101476D01*
X168828052Y-106990200D01*
X168994966Y-106934561D01*
X169106242Y-106934561D01*
X169273157Y-106990200D01*
X169328795Y-107045838D01*
X170052090Y-106934561D02*
X170274642Y-106934561D01*
X170385919Y-106990200D01*
X170497195Y-107101476D01*
X170552833Y-107324028D01*
X170552833Y-107713495D01*
X170497195Y-107936047D01*
X170385919Y-108047323D01*
X170274642Y-108102961D01*
X170052090Y-108102961D01*
X169940814Y-108047323D01*
X169829538Y-107936047D01*
X169773900Y-107713495D01*
X169773900Y-107324028D01*
X169829538Y-107101476D01*
X169940814Y-106990200D01*
X170052090Y-106934561D01*
X171053576Y-108102961D02*
X171053576Y-106934561D01*
X171721233Y-108102961D01*
X171721233Y-106934561D01*
X172277614Y-108102961D02*
X172277614Y-106934561D01*
X172945271Y-108102961D01*
X172945271Y-106934561D01*
D10*
X158410054Y-110526729D02*
X158721627Y-111461449D01*
X159033200Y-110526729D01*
X159344774Y-111461449D02*
X159344774Y-110526729D01*
X159656347Y-111194386D01*
X159967920Y-110526729D01*
X159967920Y-111461449D01*
X161614808Y-110571240D02*
X161525787Y-110526729D01*
X161392256Y-110526729D01*
X161258724Y-110571240D01*
X161169703Y-110660260D01*
X161125193Y-110749281D01*
X161080682Y-110927323D01*
X161080682Y-111060855D01*
X161125193Y-111238897D01*
X161169703Y-111327918D01*
X161258724Y-111416939D01*
X161392256Y-111461449D01*
X161481277Y-111461449D01*
X161614808Y-111416939D01*
X161659319Y-111372428D01*
X161659319Y-111060855D01*
X161481277Y-111060855D01*
X162059913Y-111461449D02*
X162059913Y-110526729D01*
X162594039Y-111461449D01*
X162594039Y-110526729D01*
X163039143Y-111461449D02*
X163039143Y-110526729D01*
X163261696Y-110526729D01*
X163395227Y-110571240D01*
X163484248Y-110660260D01*
X163528759Y-110749281D01*
X163573269Y-110927323D01*
X163573269Y-111060855D01*
X163528759Y-111238897D01*
X163484248Y-111327918D01*
X163395227Y-111416939D01*
X163261696Y-111461449D01*
X163039143Y-111461449D01*
X164641520Y-111194386D02*
X165086625Y-111194386D01*
X164552500Y-111461449D02*
X164864073Y-110526729D01*
X165175646Y-111461449D01*
X165442709Y-110615750D02*
X165487220Y-110571240D01*
X165576240Y-110526729D01*
X165798793Y-110526729D01*
X165887814Y-110571240D01*
X165932324Y-110615750D01*
X165976835Y-110704771D01*
X165976835Y-110793792D01*
X165932324Y-110927323D01*
X165398199Y-111461449D01*
X165976835Y-111461449D01*
X167045086Y-111194386D02*
X167490191Y-111194386D01*
X166956065Y-111461449D02*
X167267639Y-110526729D01*
X167579212Y-111461449D01*
X168380400Y-111461449D02*
X167846275Y-111461449D01*
X168113338Y-111461449D02*
X168113338Y-110526729D01*
X168024317Y-110660260D01*
X167935296Y-110749281D01*
X167846275Y-110793792D01*
X169804736Y-110971834D02*
X169938267Y-111016344D01*
X169982778Y-111060855D01*
X170027288Y-111149876D01*
X170027288Y-111283407D01*
X169982778Y-111372428D01*
X169938267Y-111416939D01*
X169849246Y-111461449D01*
X169493162Y-111461449D01*
X169493162Y-110526729D01*
X169804736Y-110526729D01*
X169893757Y-110571240D01*
X169938267Y-110615750D01*
X169982778Y-110704771D01*
X169982778Y-110793792D01*
X169938267Y-110882813D01*
X169893757Y-110927323D01*
X169804736Y-110971834D01*
X169493162Y-110971834D01*
X170917498Y-111461449D02*
X170383372Y-111461449D01*
X170650435Y-111461449D02*
X170650435Y-110526729D01*
X170561414Y-110660260D01*
X170472393Y-110749281D01*
X170383372Y-110793792D01*
X172341833Y-110971834D02*
X172475364Y-111016344D01*
X172519875Y-111060855D01*
X172564385Y-111149876D01*
X172564385Y-111283407D01*
X172519875Y-111372428D01*
X172475364Y-111416939D01*
X172386343Y-111461449D01*
X172030260Y-111461449D01*
X172030260Y-110526729D01*
X172341833Y-110526729D01*
X172430854Y-110571240D01*
X172475364Y-110615750D01*
X172519875Y-110704771D01*
X172519875Y-110793792D01*
X172475364Y-110882813D01*
X172430854Y-110927323D01*
X172341833Y-110971834D01*
X172030260Y-110971834D01*
X172920469Y-110615750D02*
X172964980Y-110571240D01*
X173054000Y-110526729D01*
X173276553Y-110526729D01*
X173365574Y-110571240D01*
X173410084Y-110615750D01*
X173454595Y-110704771D01*
X173454595Y-110793792D01*
X173410084Y-110927323D01*
X172875959Y-111461449D01*
X173454595Y-111461449D01*
X174433825Y-110526729D02*
X174745399Y-111461449D01*
X175056972Y-110526729D01*
X175368545Y-111461449D02*
X175368545Y-110526729D01*
X175991692Y-110526729D02*
X176169734Y-110526729D01*
X176258755Y-110571240D01*
X176347776Y-110660260D01*
X176392286Y-110838302D01*
X176392286Y-111149876D01*
X176347776Y-111327918D01*
X176258755Y-111416939D01*
X176169734Y-111461449D01*
X175991692Y-111461449D01*
X175902671Y-111416939D01*
X175813650Y-111327918D01*
X175769140Y-111149876D01*
X175769140Y-110838302D01*
X175813650Y-110660260D01*
X175902671Y-110571240D01*
X175991692Y-110526729D01*
X177994663Y-110571240D02*
X177905642Y-110526729D01*
X177772111Y-110526729D01*
X177638580Y-110571240D01*
X177549559Y-110660260D01*
X177505048Y-110749281D01*
X177460538Y-110927323D01*
X177460538Y-111060855D01*
X177505048Y-111238897D01*
X177549559Y-111327918D01*
X177638580Y-111416939D01*
X177772111Y-111461449D01*
X177861132Y-111461449D01*
X177994663Y-111416939D01*
X178039174Y-111372428D01*
X178039174Y-111060855D01*
X177861132Y-111060855D01*
X178439768Y-111461449D02*
X178439768Y-110526729D01*
X178973894Y-111461449D01*
X178973894Y-110526729D01*
X179418999Y-111461449D02*
X179418999Y-110526729D01*
X179641551Y-110526729D01*
X179775082Y-110571240D01*
X179864103Y-110660260D01*
X179908614Y-110749281D01*
X179953124Y-110927323D01*
X179953124Y-111060855D01*
X179908614Y-111238897D01*
X179864103Y-111327918D01*
X179775082Y-111416939D01*
X179641551Y-111461449D01*
X179418999Y-111461449D01*
X184250736Y-132126834D02*
X184562309Y-132126834D01*
X184695840Y-132616449D02*
X184250736Y-132616449D01*
X184250736Y-131681729D01*
X184695840Y-131681729D01*
X185096435Y-132616449D02*
X185096435Y-131681729D01*
X185630560Y-132616449D01*
X185630560Y-131681729D01*
X186787833Y-132616449D02*
X186787833Y-131681729D01*
X187099406Y-132349386D01*
X187410980Y-131681729D01*
X187410980Y-132616449D01*
X187811574Y-132571939D02*
X187945105Y-132616449D01*
X188167658Y-132616449D01*
X188256679Y-132571939D01*
X188301189Y-132527428D01*
X188345700Y-132438407D01*
X188345700Y-132349386D01*
X188301189Y-132260365D01*
X188256679Y-132215855D01*
X188167658Y-132171344D01*
X187989616Y-132126834D01*
X187900595Y-132082323D01*
X187856084Y-132037813D01*
X187811574Y-131948792D01*
X187811574Y-131859771D01*
X187856084Y-131770750D01*
X187900595Y-131726240D01*
X187989616Y-131681729D01*
X188212168Y-131681729D01*
X188345700Y-131726240D01*
X189235909Y-132616449D02*
X188701783Y-132616449D01*
X188968846Y-132616449D02*
X188968846Y-131681729D01*
X188879825Y-131815260D01*
X188790804Y-131904281D01*
X188701783Y-131948792D01*
X190348671Y-132616449D02*
X190348671Y-131681729D01*
X190660244Y-132349386D01*
X190971818Y-131681729D01*
X190971818Y-132616449D01*
X191372412Y-132571939D02*
X191505943Y-132616449D01*
X191728496Y-132616449D01*
X191817517Y-132571939D01*
X191862027Y-132527428D01*
X191906538Y-132438407D01*
X191906538Y-132349386D01*
X191862027Y-132260365D01*
X191817517Y-132215855D01*
X191728496Y-132171344D01*
X191550454Y-132126834D01*
X191461433Y-132082323D01*
X191416922Y-132037813D01*
X191372412Y-131948792D01*
X191372412Y-131859771D01*
X191416922Y-131770750D01*
X191461433Y-131726240D01*
X191550454Y-131681729D01*
X191773006Y-131681729D01*
X191906538Y-131726240D01*
X192262621Y-131770750D02*
X192307132Y-131726240D01*
X192396153Y-131681729D01*
X192618705Y-131681729D01*
X192707726Y-131726240D01*
X192752237Y-131770750D01*
X192796747Y-131859771D01*
X192796747Y-131948792D01*
X192752237Y-132082323D01*
X192218111Y-132616449D01*
X192796747Y-132616449D01*
X193775978Y-131681729D02*
X194310103Y-131681729D01*
X194043040Y-132616449D02*
X194043040Y-131681729D01*
X194532656Y-131681729D02*
X195155802Y-132616449D01*
X195155802Y-131681729D02*
X194532656Y-132616449D01*
X196758180Y-132616449D02*
X196446606Y-132171344D01*
X196224054Y-132616449D02*
X196224054Y-131681729D01*
X196580138Y-131681729D01*
X196669159Y-131726240D01*
X196713669Y-131770750D01*
X196758180Y-131859771D01*
X196758180Y-131993302D01*
X196713669Y-132082323D01*
X196669159Y-132126834D01*
X196580138Y-132171344D01*
X196224054Y-132171344D01*
X197069753Y-131681729D02*
X197692900Y-132616449D01*
X197692900Y-131681729D02*
X197069753Y-132616449D01*
X199295277Y-132527428D02*
X199250766Y-132571939D01*
X199117235Y-132616449D01*
X199028214Y-132616449D01*
X198894682Y-132571939D01*
X198805661Y-132482918D01*
X198761151Y-132393897D01*
X198716640Y-132215855D01*
X198716640Y-132082323D01*
X198761151Y-131904281D01*
X198805661Y-131815260D01*
X198894682Y-131726240D01*
X199028214Y-131681729D01*
X199117235Y-131681729D01*
X199250766Y-131726240D01*
X199295277Y-131770750D01*
X199695871Y-132616449D02*
X199695871Y-131681729D01*
X200229997Y-132616449D02*
X199829402Y-132082323D01*
X200229997Y-131681729D02*
X199695871Y-132215855D01*
X201298248Y-132571939D02*
X201431780Y-132616449D01*
X201654332Y-132616449D01*
X201743353Y-132571939D01*
X201787863Y-132527428D01*
X201832374Y-132438407D01*
X201832374Y-132349386D01*
X201787863Y-132260365D01*
X201743353Y-132215855D01*
X201654332Y-132171344D01*
X201476290Y-132126834D01*
X201387269Y-132082323D01*
X201342759Y-132037813D01*
X201298248Y-131948792D01*
X201298248Y-131859771D01*
X201342759Y-131770750D01*
X201387269Y-131726240D01*
X201476290Y-131681729D01*
X201698842Y-131681729D01*
X201832374Y-131726240D01*
X202099437Y-131681729D02*
X202633562Y-131681729D01*
X202366500Y-132616449D02*
X202366500Y-131681729D01*
X202945136Y-132616449D02*
X202945136Y-131681729D01*
X203301220Y-131681729D01*
X203390240Y-131726240D01*
X203434751Y-131770750D01*
X203479261Y-131859771D01*
X203479261Y-131993302D01*
X203434751Y-132082323D01*
X203390240Y-132126834D01*
X203301220Y-132171344D01*
X202945136Y-132171344D01*
X204592023Y-132616449D02*
X204592023Y-131681729D01*
X204814576Y-131681729D01*
X204948107Y-131726240D01*
X205037128Y-131815260D01*
X205081639Y-131904281D01*
X205126149Y-132082323D01*
X205126149Y-132215855D01*
X205081639Y-132393897D01*
X205037128Y-132482918D01*
X204948107Y-132571939D01*
X204814576Y-132616449D01*
X204592023Y-132616449D01*
X205526743Y-132616449D02*
X205526743Y-131681729D01*
X206505974Y-132616449D02*
X206194400Y-132171344D01*
X205971848Y-132616449D02*
X205971848Y-131681729D01*
X206327932Y-131681729D01*
X206416953Y-131726240D01*
X206461463Y-131770750D01*
X206505974Y-131859771D01*
X206505974Y-131993302D01*
X206461463Y-132082323D01*
X206416953Y-132126834D01*
X206327932Y-132171344D01*
X205971848Y-132171344D01*
D11*
X187928928Y-108102961D02*
X187928928Y-106934561D01*
X188318395Y-107769133D01*
X188707861Y-106934561D01*
X188707861Y-108102961D01*
X189486795Y-106934561D02*
X189709347Y-106934561D01*
X189820623Y-106990200D01*
X189931900Y-107101476D01*
X189987538Y-107324028D01*
X189987538Y-107713495D01*
X189931900Y-107936047D01*
X189820623Y-108047323D01*
X189709347Y-108102961D01*
X189486795Y-108102961D01*
X189375519Y-108047323D01*
X189264242Y-107936047D01*
X189208604Y-107713495D01*
X189208604Y-107324028D01*
X189264242Y-107101476D01*
X189375519Y-106990200D01*
X189486795Y-106934561D01*
X190321366Y-106934561D02*
X190989023Y-106934561D01*
X190655195Y-108102961D02*
X190655195Y-106934561D01*
X191601042Y-106934561D02*
X191823595Y-106934561D01*
X191934871Y-106990200D01*
X192046147Y-107101476D01*
X192101785Y-107324028D01*
X192101785Y-107713495D01*
X192046147Y-107936047D01*
X191934871Y-108047323D01*
X191823595Y-108102961D01*
X191601042Y-108102961D01*
X191489766Y-108047323D01*
X191378490Y-107936047D01*
X191322852Y-107713495D01*
X191322852Y-107324028D01*
X191378490Y-107101476D01*
X191489766Y-106990200D01*
X191601042Y-106934561D01*
X193270185Y-108102961D02*
X192880719Y-107546580D01*
X192602528Y-108102961D02*
X192602528Y-106934561D01*
X193047633Y-106934561D01*
X193158909Y-106990200D01*
X193214547Y-107045838D01*
X193270185Y-107157114D01*
X193270185Y-107324028D01*
X193214547Y-107435304D01*
X193158909Y-107490942D01*
X193047633Y-107546580D01*
X192602528Y-107546580D01*
X195328795Y-107991685D02*
X195273157Y-108047323D01*
X195106242Y-108102961D01*
X194994966Y-108102961D01*
X194828052Y-108047323D01*
X194716776Y-107936047D01*
X194661138Y-107824771D01*
X194605500Y-107602219D01*
X194605500Y-107435304D01*
X194661138Y-107212752D01*
X194716776Y-107101476D01*
X194828052Y-106990200D01*
X194994966Y-106934561D01*
X195106242Y-106934561D01*
X195273157Y-106990200D01*
X195328795Y-107045838D01*
X196052090Y-106934561D02*
X196274642Y-106934561D01*
X196385919Y-106990200D01*
X196497195Y-107101476D01*
X196552833Y-107324028D01*
X196552833Y-107713495D01*
X196497195Y-107936047D01*
X196385919Y-108047323D01*
X196274642Y-108102961D01*
X196052090Y-108102961D01*
X195940814Y-108047323D01*
X195829538Y-107936047D01*
X195773900Y-107713495D01*
X195773900Y-107324028D01*
X195829538Y-107101476D01*
X195940814Y-106990200D01*
X196052090Y-106934561D01*
X197053576Y-108102961D02*
X197053576Y-106934561D01*
X197721233Y-108102961D01*
X197721233Y-106934561D01*
X198277614Y-108102961D02*
X198277614Y-106934561D01*
X198945271Y-108102961D01*
X198945271Y-106934561D01*
D10*
X184410054Y-110526729D02*
X184721627Y-111461449D01*
X185033200Y-110526729D01*
X185344774Y-111461449D02*
X185344774Y-110526729D01*
X185656347Y-111194386D01*
X185967920Y-110526729D01*
X185967920Y-111461449D01*
X187614808Y-110571240D02*
X187525787Y-110526729D01*
X187392256Y-110526729D01*
X187258724Y-110571240D01*
X187169703Y-110660260D01*
X187125193Y-110749281D01*
X187080682Y-110927323D01*
X187080682Y-111060855D01*
X187125193Y-111238897D01*
X187169703Y-111327918D01*
X187258724Y-111416939D01*
X187392256Y-111461449D01*
X187481277Y-111461449D01*
X187614808Y-111416939D01*
X187659319Y-111372428D01*
X187659319Y-111060855D01*
X187481277Y-111060855D01*
X188059913Y-111461449D02*
X188059913Y-110526729D01*
X188594039Y-111461449D01*
X188594039Y-110526729D01*
X189039143Y-111461449D02*
X189039143Y-110526729D01*
X189261696Y-110526729D01*
X189395227Y-110571240D01*
X189484248Y-110660260D01*
X189528759Y-110749281D01*
X189573269Y-110927323D01*
X189573269Y-111060855D01*
X189528759Y-111238897D01*
X189484248Y-111327918D01*
X189395227Y-111416939D01*
X189261696Y-111461449D01*
X189039143Y-111461449D01*
X190641520Y-111194386D02*
X191086625Y-111194386D01*
X190552500Y-111461449D02*
X190864073Y-110526729D01*
X191175646Y-111461449D01*
X191442709Y-110615750D02*
X191487220Y-110571240D01*
X191576240Y-110526729D01*
X191798793Y-110526729D01*
X191887814Y-110571240D01*
X191932324Y-110615750D01*
X191976835Y-110704771D01*
X191976835Y-110793792D01*
X191932324Y-110927323D01*
X191398199Y-111461449D01*
X191976835Y-111461449D01*
X193045086Y-111194386D02*
X193490191Y-111194386D01*
X192956065Y-111461449D02*
X193267639Y-110526729D01*
X193579212Y-111461449D01*
X194380400Y-111461449D02*
X193846275Y-111461449D01*
X194113338Y-111461449D02*
X194113338Y-110526729D01*
X194024317Y-110660260D01*
X193935296Y-110749281D01*
X193846275Y-110793792D01*
X195804736Y-110971834D02*
X195938267Y-111016344D01*
X195982778Y-111060855D01*
X196027288Y-111149876D01*
X196027288Y-111283407D01*
X195982778Y-111372428D01*
X195938267Y-111416939D01*
X195849246Y-111461449D01*
X195493162Y-111461449D01*
X195493162Y-110526729D01*
X195804736Y-110526729D01*
X195893757Y-110571240D01*
X195938267Y-110615750D01*
X195982778Y-110704771D01*
X195982778Y-110793792D01*
X195938267Y-110882813D01*
X195893757Y-110927323D01*
X195804736Y-110971834D01*
X195493162Y-110971834D01*
X196917498Y-111461449D02*
X196383372Y-111461449D01*
X196650435Y-111461449D02*
X196650435Y-110526729D01*
X196561414Y-110660260D01*
X196472393Y-110749281D01*
X196383372Y-110793792D01*
X198341833Y-110971834D02*
X198475364Y-111016344D01*
X198519875Y-111060855D01*
X198564385Y-111149876D01*
X198564385Y-111283407D01*
X198519875Y-111372428D01*
X198475364Y-111416939D01*
X198386343Y-111461449D01*
X198030260Y-111461449D01*
X198030260Y-110526729D01*
X198341833Y-110526729D01*
X198430854Y-110571240D01*
X198475364Y-110615750D01*
X198519875Y-110704771D01*
X198519875Y-110793792D01*
X198475364Y-110882813D01*
X198430854Y-110927323D01*
X198341833Y-110971834D01*
X198030260Y-110971834D01*
X198920469Y-110615750D02*
X198964980Y-110571240D01*
X199054000Y-110526729D01*
X199276553Y-110526729D01*
X199365574Y-110571240D01*
X199410084Y-110615750D01*
X199454595Y-110704771D01*
X199454595Y-110793792D01*
X199410084Y-110927323D01*
X198875959Y-111461449D01*
X199454595Y-111461449D01*
X200433825Y-110526729D02*
X200745399Y-111461449D01*
X201056972Y-110526729D01*
X201368545Y-111461449D02*
X201368545Y-110526729D01*
X201991692Y-110526729D02*
X202169734Y-110526729D01*
X202258755Y-110571240D01*
X202347776Y-110660260D01*
X202392286Y-110838302D01*
X202392286Y-111149876D01*
X202347776Y-111327918D01*
X202258755Y-111416939D01*
X202169734Y-111461449D01*
X201991692Y-111461449D01*
X201902671Y-111416939D01*
X201813650Y-111327918D01*
X201769140Y-111149876D01*
X201769140Y-110838302D01*
X201813650Y-110660260D01*
X201902671Y-110571240D01*
X201991692Y-110526729D01*
X203994663Y-110571240D02*
X203905642Y-110526729D01*
X203772111Y-110526729D01*
X203638580Y-110571240D01*
X203549559Y-110660260D01*
X203505048Y-110749281D01*
X203460538Y-110927323D01*
X203460538Y-111060855D01*
X203505048Y-111238897D01*
X203549559Y-111327918D01*
X203638580Y-111416939D01*
X203772111Y-111461449D01*
X203861132Y-111461449D01*
X203994663Y-111416939D01*
X204039174Y-111372428D01*
X204039174Y-111060855D01*
X203861132Y-111060855D01*
X204439768Y-111461449D02*
X204439768Y-110526729D01*
X204973894Y-111461449D01*
X204973894Y-110526729D01*
X205418999Y-111461449D02*
X205418999Y-110526729D01*
X205641551Y-110526729D01*
X205775082Y-110571240D01*
X205864103Y-110660260D01*
X205908614Y-110749281D01*
X205953124Y-110927323D01*
X205953124Y-111060855D01*
X205908614Y-111238897D01*
X205864103Y-111327918D01*
X205775082Y-111416939D01*
X205641551Y-111461449D01*
X205418999Y-111461449D01*
D14*
%TO.C,T_MCU0*%
X101845144Y-101805792D02*
X101845144Y-101133491D01*
X103021672Y-101469642D02*
X101845144Y-101469642D01*
X103133723Y-101021440D02*
X103133723Y-100125038D01*
X103021672Y-99844912D02*
X101845144Y-99844912D01*
X102685522Y-99452736D01*
X101845144Y-99060560D01*
X103021672Y-99060560D01*
X102909622Y-97828007D02*
X102965647Y-97884032D01*
X103021672Y-98052108D01*
X103021672Y-98164158D01*
X102965647Y-98332234D01*
X102853597Y-98444284D01*
X102741547Y-98500309D01*
X102517446Y-98556334D01*
X102349371Y-98556334D01*
X102125270Y-98500309D01*
X102013220Y-98444284D01*
X101901170Y-98332234D01*
X101845144Y-98164158D01*
X101845144Y-98052108D01*
X101901170Y-97884032D01*
X101957195Y-97828007D01*
X101845144Y-97323781D02*
X102797572Y-97323781D01*
X102909622Y-97267756D01*
X102965647Y-97211731D01*
X103021672Y-97099680D01*
X103021672Y-96875580D01*
X102965647Y-96763530D01*
X102909622Y-96707504D01*
X102797572Y-96651479D01*
X101845144Y-96651479D01*
X101845144Y-95867127D02*
X101845144Y-95755077D01*
X101901170Y-95643027D01*
X101957195Y-95587002D01*
X102069245Y-95530976D01*
X102293346Y-95474951D01*
X102573471Y-95474951D01*
X102797572Y-95530976D01*
X102909622Y-95587002D01*
X102965647Y-95643027D01*
X103021672Y-95755077D01*
X103021672Y-95867127D01*
X102965647Y-95979178D01*
X102909622Y-96035203D01*
X102797572Y-96091228D01*
X102573471Y-96147253D01*
X102293346Y-96147253D01*
X102069245Y-96091228D01*
X101957195Y-96035203D01*
X101901170Y-95979178D01*
X101845144Y-95867127D01*
D11*
X106460699Y-108151283D02*
X107629099Y-107761817D01*
X106460699Y-107372350D01*
X106460699Y-106760331D02*
X106460699Y-106537779D01*
X106516338Y-106426502D01*
X106627614Y-106315226D01*
X106850166Y-106259588D01*
X107239633Y-106259588D01*
X107462185Y-106315226D01*
X107573461Y-106426502D01*
X107629099Y-106537779D01*
X107629099Y-106760331D01*
X107573461Y-106871607D01*
X107462185Y-106982883D01*
X107239633Y-107038521D01*
X106850166Y-107038521D01*
X106627614Y-106982883D01*
X106516338Y-106871607D01*
X106460699Y-106760331D01*
X107629099Y-105202464D02*
X107629099Y-105758845D01*
X106460699Y-105758845D01*
X107517823Y-104812998D02*
X107573461Y-104757360D01*
X107629099Y-104812998D01*
X107573461Y-104868636D01*
X107517823Y-104812998D01*
X107629099Y-104812998D01*
X107295271Y-104312255D02*
X107295271Y-103755874D01*
X107629099Y-104423531D02*
X106460699Y-104034064D01*
X107629099Y-103644598D01*
X107629099Y-103255131D02*
X106460699Y-103255131D01*
X106460699Y-102976940D01*
X106516338Y-102810026D01*
X106627614Y-102698750D01*
X106738890Y-102643112D01*
X106961442Y-102587474D01*
X107128357Y-102587474D01*
X107350909Y-102643112D01*
X107462185Y-102698750D01*
X107573461Y-102810026D01*
X107629099Y-102976940D01*
X107629099Y-103255131D01*
X106460699Y-101752902D02*
X107295271Y-101752902D01*
X107462185Y-101808540D01*
X107573461Y-101919817D01*
X107629099Y-102086731D01*
X107629099Y-102198007D01*
X109510223Y-107984369D02*
X108341823Y-107984369D01*
X109176395Y-107594902D01*
X108341823Y-107205436D01*
X109510223Y-107205436D01*
X109176395Y-106704693D02*
X109176395Y-106148312D01*
X109510223Y-106815969D02*
X108341823Y-106426502D01*
X109510223Y-106037036D01*
X108341823Y-105758845D02*
X109510223Y-104979912D01*
X108341823Y-104979912D02*
X109510223Y-105758845D01*
X108453100Y-103700236D02*
X108397462Y-103644598D01*
X108341823Y-103533321D01*
X108341823Y-103255131D01*
X108397462Y-103143855D01*
X108453100Y-103088217D01*
X108564376Y-103032579D01*
X108675652Y-103032579D01*
X108842566Y-103088217D01*
X109510223Y-103755874D01*
X109510223Y-103032579D01*
X108731290Y-102031093D02*
X109510223Y-102031093D01*
X108286185Y-102309283D02*
X109120757Y-102587474D01*
X109120757Y-101864179D01*
X108341823Y-101585988D02*
X109510223Y-101196521D01*
X108341823Y-100807055D01*
X108341823Y-99638655D02*
X108341823Y-98915360D01*
X108786928Y-99304826D01*
X108786928Y-99137912D01*
X108842566Y-99026636D01*
X108898204Y-98970998D01*
X109009481Y-98915360D01*
X109287671Y-98915360D01*
X109398947Y-98970998D01*
X109454585Y-99026636D01*
X109510223Y-99137912D01*
X109510223Y-99471740D01*
X109454585Y-99583017D01*
X109398947Y-99638655D01*
X109176395Y-98470255D02*
X109176395Y-97913874D01*
X109510223Y-98581531D02*
X108341823Y-98192064D01*
X109510223Y-97802598D01*
X102595956Y-93887611D02*
X102595956Y-93498144D01*
X103207975Y-93331230D02*
X103207975Y-93887611D01*
X102039575Y-93887611D01*
X102039575Y-93331230D01*
X103207975Y-92830487D02*
X102039575Y-92830487D01*
X103207975Y-92162830D01*
X102039575Y-92162830D01*
X105089099Y-94833459D02*
X103920699Y-94833459D01*
X105089099Y-94277078D02*
X103920699Y-94277078D01*
X105089099Y-93609420D01*
X103920699Y-93609420D01*
X104643995Y-93053040D02*
X104643995Y-92162830D01*
X105089099Y-92607935D02*
X104198890Y-92607935D01*
X105857462Y-94555268D02*
X105801823Y-94666544D01*
X105801823Y-94833459D01*
X105857462Y-95000373D01*
X105968738Y-95111649D01*
X106080014Y-95167287D01*
X106302566Y-95222925D01*
X106469481Y-95222925D01*
X106692033Y-95167287D01*
X106803309Y-95111649D01*
X106914585Y-95000373D01*
X106970223Y-94833459D01*
X106970223Y-94722182D01*
X106914585Y-94555268D01*
X106858947Y-94499630D01*
X106469481Y-94499630D01*
X106469481Y-94722182D01*
X106970223Y-93998887D02*
X105801823Y-93998887D01*
X106970223Y-93331230D01*
X105801823Y-93331230D01*
X106970223Y-92774849D02*
X105801823Y-92774849D01*
X105801823Y-92496659D01*
X105857462Y-92329744D01*
X105968738Y-92218468D01*
X106080014Y-92162830D01*
X106302566Y-92107192D01*
X106469481Y-92107192D01*
X106692033Y-92162830D01*
X106803309Y-92218468D01*
X106914585Y-92329744D01*
X106970223Y-92496659D01*
X106970223Y-92774849D01*
X107682947Y-95445478D02*
X108851347Y-95056011D01*
X107682947Y-94666544D01*
X107682947Y-94054525D02*
X107682947Y-93831973D01*
X107738586Y-93720697D01*
X107849862Y-93609420D01*
X108072414Y-93553782D01*
X108461881Y-93553782D01*
X108684433Y-93609420D01*
X108795709Y-93720697D01*
X108851347Y-93831973D01*
X108851347Y-94054525D01*
X108795709Y-94165801D01*
X108684433Y-94277078D01*
X108461881Y-94332716D01*
X108072414Y-94332716D01*
X107849862Y-94277078D01*
X107738586Y-94165801D01*
X107682947Y-94054525D01*
X108406243Y-93053040D02*
X108406243Y-92162830D01*
X108851347Y-92607935D02*
X107961138Y-92607935D01*
D14*
%TO.C,U1*%
X125192174Y-76588358D02*
X125192174Y-79596976D01*
X125369152Y-79950931D01*
X125546129Y-80127908D01*
X125900084Y-80304886D01*
X126607995Y-80304886D01*
X126961950Y-80127908D01*
X127138927Y-79950931D01*
X127315905Y-79596976D01*
X127315905Y-76588358D01*
X131032433Y-80304886D02*
X128908702Y-80304886D01*
X129970567Y-80304886D02*
X129970567Y-76588358D01*
X129616612Y-77119291D01*
X129262657Y-77473246D01*
X128908702Y-77650223D01*
D15*
X144193977Y-94422980D02*
X144193977Y-94102505D01*
X144754809Y-94262742D02*
X144193977Y-94262742D01*
X144754809Y-93915561D02*
X144193977Y-93915561D01*
X144594572Y-93728617D01*
X144193977Y-93541673D01*
X144754809Y-93541673D01*
X144701397Y-92954134D02*
X144728103Y-92980841D01*
X144754809Y-93060960D01*
X144754809Y-93114372D01*
X144728103Y-93194491D01*
X144674690Y-93247904D01*
X144621278Y-93274610D01*
X144514453Y-93301316D01*
X144434334Y-93301316D01*
X144327509Y-93274610D01*
X144274096Y-93247904D01*
X144220684Y-93194491D01*
X144193977Y-93114372D01*
X144193977Y-93060960D01*
X144220684Y-92980841D01*
X144247390Y-92954134D01*
X144247390Y-92740484D02*
X144220684Y-92713778D01*
X144193977Y-92660365D01*
X144193977Y-92526834D01*
X144220684Y-92473421D01*
X144247390Y-92446715D01*
X144300802Y-92420009D01*
X144354215Y-92420009D01*
X144434334Y-92446715D01*
X144754809Y-92767190D01*
X144754809Y-92420009D01*
X144247390Y-92206358D02*
X144220684Y-92179652D01*
X144193977Y-92126240D01*
X144193977Y-91992708D01*
X144220684Y-91939296D01*
X144247390Y-91912589D01*
X144300802Y-91885883D01*
X144354215Y-91885883D01*
X144434334Y-91912589D01*
X144754809Y-92233065D01*
X144754809Y-91885883D01*
X144193977Y-91538701D02*
X144193977Y-91485289D01*
X144220684Y-91431876D01*
X144247390Y-91405170D01*
X144300802Y-91378464D01*
X144407628Y-91351757D01*
X144541159Y-91351757D01*
X144647984Y-91378464D01*
X144701397Y-91405170D01*
X144728103Y-91431876D01*
X144754809Y-91485289D01*
X144754809Y-91538701D01*
X144728103Y-91592114D01*
X144701397Y-91618820D01*
X144647984Y-91645526D01*
X144541159Y-91672233D01*
X144407628Y-91672233D01*
X144300802Y-91645526D01*
X144247390Y-91618820D01*
X144220684Y-91592114D01*
X144193977Y-91538701D01*
X144754809Y-91084694D02*
X144754809Y-90977869D01*
X144728103Y-90924457D01*
X144701397Y-90897750D01*
X144621278Y-90844338D01*
X144514453Y-90817632D01*
X144300802Y-90817632D01*
X144247390Y-90844338D01*
X144220684Y-90871044D01*
X144193977Y-90924457D01*
X144193977Y-91031282D01*
X144220684Y-91084694D01*
X144247390Y-91111401D01*
X144300802Y-91138107D01*
X144434334Y-91138107D01*
X144487746Y-91111401D01*
X144514453Y-91084694D01*
X144541159Y-91031282D01*
X144541159Y-90924457D01*
X144514453Y-90871044D01*
X144487746Y-90844338D01*
X144434334Y-90817632D01*
D10*
%TO.C,U$5*%
X141214340Y-95502262D02*
X141179505Y-95571931D01*
X141179505Y-95676434D01*
X141214340Y-95780937D01*
X141284008Y-95850605D01*
X141353677Y-95885440D01*
X141493014Y-95920274D01*
X141597517Y-95920274D01*
X141736854Y-95885440D01*
X141806522Y-95850605D01*
X141876191Y-95780937D01*
X141911025Y-95676434D01*
X141911025Y-95606765D01*
X141876191Y-95502262D01*
X141841357Y-95467428D01*
X141597517Y-95467428D01*
X141597517Y-95606765D01*
X141911025Y-93481874D02*
X141179505Y-93481874D01*
X141702020Y-93238034D01*
X141179505Y-92994194D01*
X141911025Y-92994194D01*
X141876191Y-92680685D02*
X141911025Y-92576182D01*
X141911025Y-92402011D01*
X141876191Y-92332342D01*
X141841357Y-92297508D01*
X141771688Y-92262674D01*
X141702020Y-92262674D01*
X141632351Y-92297508D01*
X141597517Y-92332342D01*
X141562682Y-92402011D01*
X141527848Y-92541348D01*
X141493014Y-92611017D01*
X141458180Y-92645851D01*
X141388511Y-92680685D01*
X141318842Y-92680685D01*
X141249174Y-92645851D01*
X141214340Y-92611017D01*
X141179505Y-92541348D01*
X141179505Y-92367177D01*
X141214340Y-92262674D01*
X141249174Y-91984000D02*
X141214340Y-91949165D01*
X141179505Y-91879497D01*
X141179505Y-91705325D01*
X141214340Y-91635657D01*
X141249174Y-91600822D01*
X141318842Y-91565988D01*
X141388511Y-91565988D01*
X141493014Y-91600822D01*
X141911025Y-92018834D01*
X141911025Y-91565988D01*
X141179505Y-89684937D02*
X141911025Y-89441097D01*
X141179505Y-89197257D01*
X134483340Y-95502262D02*
X134448505Y-95571931D01*
X134448505Y-95676434D01*
X134483340Y-95780937D01*
X134553008Y-95850605D01*
X134622677Y-95885440D01*
X134762014Y-95920274D01*
X134866517Y-95920274D01*
X135005854Y-95885440D01*
X135075522Y-95850605D01*
X135145191Y-95780937D01*
X135180025Y-95676434D01*
X135180025Y-95606765D01*
X135145191Y-95502262D01*
X135110357Y-95467428D01*
X134866517Y-95467428D01*
X134866517Y-95606765D01*
X135180025Y-93481874D02*
X134448505Y-93481874D01*
X134971020Y-93238034D01*
X134448505Y-92994194D01*
X135180025Y-92994194D01*
X135145191Y-92680685D02*
X135180025Y-92576182D01*
X135180025Y-92402011D01*
X135145191Y-92332342D01*
X135110357Y-92297508D01*
X135040688Y-92262674D01*
X134971020Y-92262674D01*
X134901351Y-92297508D01*
X134866517Y-92332342D01*
X134831682Y-92402011D01*
X134796848Y-92541348D01*
X134762014Y-92611017D01*
X134727180Y-92645851D01*
X134657511Y-92680685D01*
X134587842Y-92680685D01*
X134518174Y-92645851D01*
X134483340Y-92611017D01*
X134448505Y-92541348D01*
X134448505Y-92367177D01*
X134483340Y-92262674D01*
X135180025Y-91565988D02*
X135180025Y-91984000D01*
X135180025Y-91774994D02*
X134448505Y-91774994D01*
X134553008Y-91844662D01*
X134622677Y-91914331D01*
X134657511Y-91984000D01*
X134448505Y-89684937D02*
X135180025Y-89441097D01*
X134448505Y-89197257D01*
D14*
%TO.C,U2*%
X125192174Y-105588358D02*
X125192174Y-108596976D01*
X125369152Y-108950931D01*
X125546129Y-109127908D01*
X125900084Y-109304886D01*
X126607995Y-109304886D01*
X126961950Y-109127908D01*
X127138927Y-108950931D01*
X127315905Y-108596976D01*
X127315905Y-105588358D01*
X128908702Y-105942313D02*
X129085680Y-105765336D01*
X129439635Y-105588358D01*
X130324523Y-105588358D01*
X130678478Y-105765336D01*
X130855455Y-105942313D01*
X131032433Y-106296268D01*
X131032433Y-106650223D01*
X130855455Y-107181156D01*
X128731725Y-109304886D01*
X131032433Y-109304886D01*
D15*
X144193977Y-123422980D02*
X144193977Y-123102505D01*
X144754809Y-123262742D02*
X144193977Y-123262742D01*
X144754809Y-122915561D02*
X144193977Y-122915561D01*
X144594572Y-122728617D01*
X144193977Y-122541673D01*
X144754809Y-122541673D01*
X144701397Y-121954134D02*
X144728103Y-121980841D01*
X144754809Y-122060960D01*
X144754809Y-122114372D01*
X144728103Y-122194491D01*
X144674690Y-122247904D01*
X144621278Y-122274610D01*
X144514453Y-122301316D01*
X144434334Y-122301316D01*
X144327509Y-122274610D01*
X144274096Y-122247904D01*
X144220684Y-122194491D01*
X144193977Y-122114372D01*
X144193977Y-122060960D01*
X144220684Y-121980841D01*
X144247390Y-121954134D01*
X144247390Y-121740484D02*
X144220684Y-121713778D01*
X144193977Y-121660365D01*
X144193977Y-121526834D01*
X144220684Y-121473421D01*
X144247390Y-121446715D01*
X144300802Y-121420009D01*
X144354215Y-121420009D01*
X144434334Y-121446715D01*
X144754809Y-121767190D01*
X144754809Y-121420009D01*
X144247390Y-121206358D02*
X144220684Y-121179652D01*
X144193977Y-121126240D01*
X144193977Y-120992708D01*
X144220684Y-120939296D01*
X144247390Y-120912589D01*
X144300802Y-120885883D01*
X144354215Y-120885883D01*
X144434334Y-120912589D01*
X144754809Y-121233065D01*
X144754809Y-120885883D01*
X144193977Y-120538701D02*
X144193977Y-120485289D01*
X144220684Y-120431876D01*
X144247390Y-120405170D01*
X144300802Y-120378464D01*
X144407628Y-120351757D01*
X144541159Y-120351757D01*
X144647984Y-120378464D01*
X144701397Y-120405170D01*
X144728103Y-120431876D01*
X144754809Y-120485289D01*
X144754809Y-120538701D01*
X144728103Y-120592114D01*
X144701397Y-120618820D01*
X144647984Y-120645526D01*
X144541159Y-120672233D01*
X144407628Y-120672233D01*
X144300802Y-120645526D01*
X144247390Y-120618820D01*
X144220684Y-120592114D01*
X144193977Y-120538701D01*
X144754809Y-120084694D02*
X144754809Y-119977869D01*
X144728103Y-119924457D01*
X144701397Y-119897750D01*
X144621278Y-119844338D01*
X144514453Y-119817632D01*
X144300802Y-119817632D01*
X144247390Y-119844338D01*
X144220684Y-119871044D01*
X144193977Y-119924457D01*
X144193977Y-120031282D01*
X144220684Y-120084694D01*
X144247390Y-120111401D01*
X144300802Y-120138107D01*
X144434334Y-120138107D01*
X144487746Y-120111401D01*
X144514453Y-120084694D01*
X144541159Y-120031282D01*
X144541159Y-119924457D01*
X144514453Y-119871044D01*
X144487746Y-119844338D01*
X144434334Y-119817632D01*
D10*
%TO.C,U$13*%
X141214340Y-124502262D02*
X141179505Y-124571931D01*
X141179505Y-124676434D01*
X141214340Y-124780937D01*
X141284008Y-124850605D01*
X141353677Y-124885440D01*
X141493014Y-124920274D01*
X141597517Y-124920274D01*
X141736854Y-124885440D01*
X141806522Y-124850605D01*
X141876191Y-124780937D01*
X141911025Y-124676434D01*
X141911025Y-124606765D01*
X141876191Y-124502262D01*
X141841357Y-124467428D01*
X141597517Y-124467428D01*
X141597517Y-124606765D01*
X141911025Y-122481874D02*
X141179505Y-122481874D01*
X141702020Y-122238034D01*
X141179505Y-121994194D01*
X141911025Y-121994194D01*
X141876191Y-121680685D02*
X141911025Y-121576182D01*
X141911025Y-121402011D01*
X141876191Y-121332342D01*
X141841357Y-121297508D01*
X141771688Y-121262674D01*
X141702020Y-121262674D01*
X141632351Y-121297508D01*
X141597517Y-121332342D01*
X141562682Y-121402011D01*
X141527848Y-121541348D01*
X141493014Y-121611017D01*
X141458180Y-121645851D01*
X141388511Y-121680685D01*
X141318842Y-121680685D01*
X141249174Y-121645851D01*
X141214340Y-121611017D01*
X141179505Y-121541348D01*
X141179505Y-121367177D01*
X141214340Y-121262674D01*
X141249174Y-120984000D02*
X141214340Y-120949165D01*
X141179505Y-120879497D01*
X141179505Y-120705325D01*
X141214340Y-120635657D01*
X141249174Y-120600822D01*
X141318842Y-120565988D01*
X141388511Y-120565988D01*
X141493014Y-120600822D01*
X141911025Y-121018834D01*
X141911025Y-120565988D01*
X141179505Y-118684937D02*
X141911025Y-118441097D01*
X141179505Y-118197257D01*
X134483340Y-124502262D02*
X134448505Y-124571931D01*
X134448505Y-124676434D01*
X134483340Y-124780937D01*
X134553008Y-124850605D01*
X134622677Y-124885440D01*
X134762014Y-124920274D01*
X134866517Y-124920274D01*
X135005854Y-124885440D01*
X135075522Y-124850605D01*
X135145191Y-124780937D01*
X135180025Y-124676434D01*
X135180025Y-124606765D01*
X135145191Y-124502262D01*
X135110357Y-124467428D01*
X134866517Y-124467428D01*
X134866517Y-124606765D01*
X135180025Y-122481874D02*
X134448505Y-122481874D01*
X134971020Y-122238034D01*
X134448505Y-121994194D01*
X135180025Y-121994194D01*
X135145191Y-121680685D02*
X135180025Y-121576182D01*
X135180025Y-121402011D01*
X135145191Y-121332342D01*
X135110357Y-121297508D01*
X135040688Y-121262674D01*
X134971020Y-121262674D01*
X134901351Y-121297508D01*
X134866517Y-121332342D01*
X134831682Y-121402011D01*
X134796848Y-121541348D01*
X134762014Y-121611017D01*
X134727180Y-121645851D01*
X134657511Y-121680685D01*
X134587842Y-121680685D01*
X134518174Y-121645851D01*
X134483340Y-121611017D01*
X134448505Y-121541348D01*
X134448505Y-121367177D01*
X134483340Y-121262674D01*
X135180025Y-120565988D02*
X135180025Y-120984000D01*
X135180025Y-120774994D02*
X134448505Y-120774994D01*
X134553008Y-120844662D01*
X134622677Y-120914331D01*
X134657511Y-120984000D01*
X134448505Y-118684937D02*
X135180025Y-118441097D01*
X134448505Y-118197257D01*
D14*
%TO.C,U3*%
X151192174Y-76588358D02*
X151192174Y-79596976D01*
X151369152Y-79950931D01*
X151546129Y-80127908D01*
X151900084Y-80304886D01*
X152607995Y-80304886D01*
X152961950Y-80127908D01*
X153138927Y-79950931D01*
X153315905Y-79596976D01*
X153315905Y-76588358D01*
X154731725Y-76588358D02*
X157032433Y-76588358D01*
X155793590Y-78004178D01*
X156324523Y-78004178D01*
X156678478Y-78181156D01*
X156855455Y-78358133D01*
X157032433Y-78712088D01*
X157032433Y-79596976D01*
X156855455Y-79950931D01*
X156678478Y-80127908D01*
X156324523Y-80304886D01*
X155262657Y-80304886D01*
X154908702Y-80127908D01*
X154731725Y-79950931D01*
D15*
X170193977Y-94422980D02*
X170193977Y-94102505D01*
X170754809Y-94262742D02*
X170193977Y-94262742D01*
X170754809Y-93915561D02*
X170193977Y-93915561D01*
X170594572Y-93728617D01*
X170193977Y-93541673D01*
X170754809Y-93541673D01*
X170701397Y-92954134D02*
X170728103Y-92980841D01*
X170754809Y-93060960D01*
X170754809Y-93114372D01*
X170728103Y-93194491D01*
X170674690Y-93247904D01*
X170621278Y-93274610D01*
X170514453Y-93301316D01*
X170434334Y-93301316D01*
X170327509Y-93274610D01*
X170274096Y-93247904D01*
X170220684Y-93194491D01*
X170193977Y-93114372D01*
X170193977Y-93060960D01*
X170220684Y-92980841D01*
X170247390Y-92954134D01*
X170247390Y-92740484D02*
X170220684Y-92713778D01*
X170193977Y-92660365D01*
X170193977Y-92526834D01*
X170220684Y-92473421D01*
X170247390Y-92446715D01*
X170300802Y-92420009D01*
X170354215Y-92420009D01*
X170434334Y-92446715D01*
X170754809Y-92767190D01*
X170754809Y-92420009D01*
X170247390Y-92206358D02*
X170220684Y-92179652D01*
X170193977Y-92126240D01*
X170193977Y-91992708D01*
X170220684Y-91939296D01*
X170247390Y-91912589D01*
X170300802Y-91885883D01*
X170354215Y-91885883D01*
X170434334Y-91912589D01*
X170754809Y-92233065D01*
X170754809Y-91885883D01*
X170193977Y-91538701D02*
X170193977Y-91485289D01*
X170220684Y-91431876D01*
X170247390Y-91405170D01*
X170300802Y-91378464D01*
X170407628Y-91351757D01*
X170541159Y-91351757D01*
X170647984Y-91378464D01*
X170701397Y-91405170D01*
X170728103Y-91431876D01*
X170754809Y-91485289D01*
X170754809Y-91538701D01*
X170728103Y-91592114D01*
X170701397Y-91618820D01*
X170647984Y-91645526D01*
X170541159Y-91672233D01*
X170407628Y-91672233D01*
X170300802Y-91645526D01*
X170247390Y-91618820D01*
X170220684Y-91592114D01*
X170193977Y-91538701D01*
X170754809Y-91084694D02*
X170754809Y-90977869D01*
X170728103Y-90924457D01*
X170701397Y-90897750D01*
X170621278Y-90844338D01*
X170514453Y-90817632D01*
X170300802Y-90817632D01*
X170247390Y-90844338D01*
X170220684Y-90871044D01*
X170193977Y-90924457D01*
X170193977Y-91031282D01*
X170220684Y-91084694D01*
X170247390Y-91111401D01*
X170300802Y-91138107D01*
X170434334Y-91138107D01*
X170487746Y-91111401D01*
X170514453Y-91084694D01*
X170541159Y-91031282D01*
X170541159Y-90924457D01*
X170514453Y-90871044D01*
X170487746Y-90844338D01*
X170434334Y-90817632D01*
D10*
%TO.C,U$17*%
X167214340Y-95502262D02*
X167179505Y-95571931D01*
X167179505Y-95676434D01*
X167214340Y-95780937D01*
X167284008Y-95850605D01*
X167353677Y-95885440D01*
X167493014Y-95920274D01*
X167597517Y-95920274D01*
X167736854Y-95885440D01*
X167806522Y-95850605D01*
X167876191Y-95780937D01*
X167911025Y-95676434D01*
X167911025Y-95606765D01*
X167876191Y-95502262D01*
X167841357Y-95467428D01*
X167597517Y-95467428D01*
X167597517Y-95606765D01*
X167911025Y-93481874D02*
X167179505Y-93481874D01*
X167702020Y-93238034D01*
X167179505Y-92994194D01*
X167911025Y-92994194D01*
X167876191Y-92680685D02*
X167911025Y-92576182D01*
X167911025Y-92402011D01*
X167876191Y-92332342D01*
X167841357Y-92297508D01*
X167771688Y-92262674D01*
X167702020Y-92262674D01*
X167632351Y-92297508D01*
X167597517Y-92332342D01*
X167562682Y-92402011D01*
X167527848Y-92541348D01*
X167493014Y-92611017D01*
X167458180Y-92645851D01*
X167388511Y-92680685D01*
X167318842Y-92680685D01*
X167249174Y-92645851D01*
X167214340Y-92611017D01*
X167179505Y-92541348D01*
X167179505Y-92367177D01*
X167214340Y-92262674D01*
X167249174Y-91984000D02*
X167214340Y-91949165D01*
X167179505Y-91879497D01*
X167179505Y-91705325D01*
X167214340Y-91635657D01*
X167249174Y-91600822D01*
X167318842Y-91565988D01*
X167388511Y-91565988D01*
X167493014Y-91600822D01*
X167911025Y-92018834D01*
X167911025Y-91565988D01*
X167179505Y-89684937D02*
X167911025Y-89441097D01*
X167179505Y-89197257D01*
X160483340Y-95502262D02*
X160448505Y-95571931D01*
X160448505Y-95676434D01*
X160483340Y-95780937D01*
X160553008Y-95850605D01*
X160622677Y-95885440D01*
X160762014Y-95920274D01*
X160866517Y-95920274D01*
X161005854Y-95885440D01*
X161075522Y-95850605D01*
X161145191Y-95780937D01*
X161180025Y-95676434D01*
X161180025Y-95606765D01*
X161145191Y-95502262D01*
X161110357Y-95467428D01*
X160866517Y-95467428D01*
X160866517Y-95606765D01*
X161180025Y-93481874D02*
X160448505Y-93481874D01*
X160971020Y-93238034D01*
X160448505Y-92994194D01*
X161180025Y-92994194D01*
X161145191Y-92680685D02*
X161180025Y-92576182D01*
X161180025Y-92402011D01*
X161145191Y-92332342D01*
X161110357Y-92297508D01*
X161040688Y-92262674D01*
X160971020Y-92262674D01*
X160901351Y-92297508D01*
X160866517Y-92332342D01*
X160831682Y-92402011D01*
X160796848Y-92541348D01*
X160762014Y-92611017D01*
X160727180Y-92645851D01*
X160657511Y-92680685D01*
X160587842Y-92680685D01*
X160518174Y-92645851D01*
X160483340Y-92611017D01*
X160448505Y-92541348D01*
X160448505Y-92367177D01*
X160483340Y-92262674D01*
X161180025Y-91565988D02*
X161180025Y-91984000D01*
X161180025Y-91774994D02*
X160448505Y-91774994D01*
X160553008Y-91844662D01*
X160622677Y-91914331D01*
X160657511Y-91984000D01*
X160448505Y-89684937D02*
X161180025Y-89441097D01*
X160448505Y-89197257D01*
D14*
%TO.C,U5*%
X177192174Y-76588358D02*
X177192174Y-79596976D01*
X177369152Y-79950931D01*
X177546129Y-80127908D01*
X177900084Y-80304886D01*
X178607995Y-80304886D01*
X178961950Y-80127908D01*
X179138927Y-79950931D01*
X179315905Y-79596976D01*
X179315905Y-76588358D01*
X182855455Y-76588358D02*
X181085680Y-76588358D01*
X180908702Y-78358133D01*
X181085680Y-78181156D01*
X181439635Y-78004178D01*
X182324523Y-78004178D01*
X182678478Y-78181156D01*
X182855455Y-78358133D01*
X183032433Y-78712088D01*
X183032433Y-79596976D01*
X182855455Y-79950931D01*
X182678478Y-80127908D01*
X182324523Y-80304886D01*
X181439635Y-80304886D01*
X181085680Y-80127908D01*
X180908702Y-79950931D01*
D15*
X196193977Y-94422980D02*
X196193977Y-94102505D01*
X196754809Y-94262742D02*
X196193977Y-94262742D01*
X196754809Y-93915561D02*
X196193977Y-93915561D01*
X196594572Y-93728617D01*
X196193977Y-93541673D01*
X196754809Y-93541673D01*
X196701397Y-92954134D02*
X196728103Y-92980841D01*
X196754809Y-93060960D01*
X196754809Y-93114372D01*
X196728103Y-93194491D01*
X196674690Y-93247904D01*
X196621278Y-93274610D01*
X196514453Y-93301316D01*
X196434334Y-93301316D01*
X196327509Y-93274610D01*
X196274096Y-93247904D01*
X196220684Y-93194491D01*
X196193977Y-93114372D01*
X196193977Y-93060960D01*
X196220684Y-92980841D01*
X196247390Y-92954134D01*
X196247390Y-92740484D02*
X196220684Y-92713778D01*
X196193977Y-92660365D01*
X196193977Y-92526834D01*
X196220684Y-92473421D01*
X196247390Y-92446715D01*
X196300802Y-92420009D01*
X196354215Y-92420009D01*
X196434334Y-92446715D01*
X196754809Y-92767190D01*
X196754809Y-92420009D01*
X196247390Y-92206358D02*
X196220684Y-92179652D01*
X196193977Y-92126240D01*
X196193977Y-91992708D01*
X196220684Y-91939296D01*
X196247390Y-91912589D01*
X196300802Y-91885883D01*
X196354215Y-91885883D01*
X196434334Y-91912589D01*
X196754809Y-92233065D01*
X196754809Y-91885883D01*
X196193977Y-91538701D02*
X196193977Y-91485289D01*
X196220684Y-91431876D01*
X196247390Y-91405170D01*
X196300802Y-91378464D01*
X196407628Y-91351757D01*
X196541159Y-91351757D01*
X196647984Y-91378464D01*
X196701397Y-91405170D01*
X196728103Y-91431876D01*
X196754809Y-91485289D01*
X196754809Y-91538701D01*
X196728103Y-91592114D01*
X196701397Y-91618820D01*
X196647984Y-91645526D01*
X196541159Y-91672233D01*
X196407628Y-91672233D01*
X196300802Y-91645526D01*
X196247390Y-91618820D01*
X196220684Y-91592114D01*
X196193977Y-91538701D01*
X196754809Y-91084694D02*
X196754809Y-90977869D01*
X196728103Y-90924457D01*
X196701397Y-90897750D01*
X196621278Y-90844338D01*
X196514453Y-90817632D01*
X196300802Y-90817632D01*
X196247390Y-90844338D01*
X196220684Y-90871044D01*
X196193977Y-90924457D01*
X196193977Y-91031282D01*
X196220684Y-91084694D01*
X196247390Y-91111401D01*
X196300802Y-91138107D01*
X196434334Y-91138107D01*
X196487746Y-91111401D01*
X196514453Y-91084694D01*
X196541159Y-91031282D01*
X196541159Y-90924457D01*
X196514453Y-90871044D01*
X196487746Y-90844338D01*
X196434334Y-90817632D01*
D10*
%TO.C,U$25*%
X193214340Y-95502262D02*
X193179505Y-95571931D01*
X193179505Y-95676434D01*
X193214340Y-95780937D01*
X193284008Y-95850605D01*
X193353677Y-95885440D01*
X193493014Y-95920274D01*
X193597517Y-95920274D01*
X193736854Y-95885440D01*
X193806522Y-95850605D01*
X193876191Y-95780937D01*
X193911025Y-95676434D01*
X193911025Y-95606765D01*
X193876191Y-95502262D01*
X193841357Y-95467428D01*
X193597517Y-95467428D01*
X193597517Y-95606765D01*
X193911025Y-93481874D02*
X193179505Y-93481874D01*
X193702020Y-93238034D01*
X193179505Y-92994194D01*
X193911025Y-92994194D01*
X193876191Y-92680685D02*
X193911025Y-92576182D01*
X193911025Y-92402011D01*
X193876191Y-92332342D01*
X193841357Y-92297508D01*
X193771688Y-92262674D01*
X193702020Y-92262674D01*
X193632351Y-92297508D01*
X193597517Y-92332342D01*
X193562682Y-92402011D01*
X193527848Y-92541348D01*
X193493014Y-92611017D01*
X193458180Y-92645851D01*
X193388511Y-92680685D01*
X193318842Y-92680685D01*
X193249174Y-92645851D01*
X193214340Y-92611017D01*
X193179505Y-92541348D01*
X193179505Y-92367177D01*
X193214340Y-92262674D01*
X193249174Y-91984000D02*
X193214340Y-91949165D01*
X193179505Y-91879497D01*
X193179505Y-91705325D01*
X193214340Y-91635657D01*
X193249174Y-91600822D01*
X193318842Y-91565988D01*
X193388511Y-91565988D01*
X193493014Y-91600822D01*
X193911025Y-92018834D01*
X193911025Y-91565988D01*
X193179505Y-89684937D02*
X193911025Y-89441097D01*
X193179505Y-89197257D01*
X186483340Y-95502262D02*
X186448505Y-95571931D01*
X186448505Y-95676434D01*
X186483340Y-95780937D01*
X186553008Y-95850605D01*
X186622677Y-95885440D01*
X186762014Y-95920274D01*
X186866517Y-95920274D01*
X187005854Y-95885440D01*
X187075522Y-95850605D01*
X187145191Y-95780937D01*
X187180025Y-95676434D01*
X187180025Y-95606765D01*
X187145191Y-95502262D01*
X187110357Y-95467428D01*
X186866517Y-95467428D01*
X186866517Y-95606765D01*
X187180025Y-93481874D02*
X186448505Y-93481874D01*
X186971020Y-93238034D01*
X186448505Y-92994194D01*
X187180025Y-92994194D01*
X187145191Y-92680685D02*
X187180025Y-92576182D01*
X187180025Y-92402011D01*
X187145191Y-92332342D01*
X187110357Y-92297508D01*
X187040688Y-92262674D01*
X186971020Y-92262674D01*
X186901351Y-92297508D01*
X186866517Y-92332342D01*
X186831682Y-92402011D01*
X186796848Y-92541348D01*
X186762014Y-92611017D01*
X186727180Y-92645851D01*
X186657511Y-92680685D01*
X186587842Y-92680685D01*
X186518174Y-92645851D01*
X186483340Y-92611017D01*
X186448505Y-92541348D01*
X186448505Y-92367177D01*
X186483340Y-92262674D01*
X187180025Y-91565988D02*
X187180025Y-91984000D01*
X187180025Y-91774994D02*
X186448505Y-91774994D01*
X186553008Y-91844662D01*
X186622677Y-91914331D01*
X186657511Y-91984000D01*
X186448505Y-89684937D02*
X187180025Y-89441097D01*
X186448505Y-89197257D01*
D14*
%TO.C,U4*%
X151192174Y-105588358D02*
X151192174Y-108596976D01*
X151369152Y-108950931D01*
X151546129Y-109127908D01*
X151900084Y-109304886D01*
X152607995Y-109304886D01*
X152961950Y-109127908D01*
X153138927Y-108950931D01*
X153315905Y-108596976D01*
X153315905Y-105588358D01*
X156678478Y-106827201D02*
X156678478Y-109304886D01*
X155793590Y-105411380D02*
X154908702Y-108066043D01*
X157209410Y-108066043D01*
D15*
X170193977Y-123422980D02*
X170193977Y-123102505D01*
X170754809Y-123262742D02*
X170193977Y-123262742D01*
X170754809Y-122915561D02*
X170193977Y-122915561D01*
X170594572Y-122728617D01*
X170193977Y-122541673D01*
X170754809Y-122541673D01*
X170701397Y-121954134D02*
X170728103Y-121980841D01*
X170754809Y-122060960D01*
X170754809Y-122114372D01*
X170728103Y-122194491D01*
X170674690Y-122247904D01*
X170621278Y-122274610D01*
X170514453Y-122301316D01*
X170434334Y-122301316D01*
X170327509Y-122274610D01*
X170274096Y-122247904D01*
X170220684Y-122194491D01*
X170193977Y-122114372D01*
X170193977Y-122060960D01*
X170220684Y-121980841D01*
X170247390Y-121954134D01*
X170247390Y-121740484D02*
X170220684Y-121713778D01*
X170193977Y-121660365D01*
X170193977Y-121526834D01*
X170220684Y-121473421D01*
X170247390Y-121446715D01*
X170300802Y-121420009D01*
X170354215Y-121420009D01*
X170434334Y-121446715D01*
X170754809Y-121767190D01*
X170754809Y-121420009D01*
X170247390Y-121206358D02*
X170220684Y-121179652D01*
X170193977Y-121126240D01*
X170193977Y-120992708D01*
X170220684Y-120939296D01*
X170247390Y-120912589D01*
X170300802Y-120885883D01*
X170354215Y-120885883D01*
X170434334Y-120912589D01*
X170754809Y-121233065D01*
X170754809Y-120885883D01*
X170193977Y-120538701D02*
X170193977Y-120485289D01*
X170220684Y-120431876D01*
X170247390Y-120405170D01*
X170300802Y-120378464D01*
X170407628Y-120351757D01*
X170541159Y-120351757D01*
X170647984Y-120378464D01*
X170701397Y-120405170D01*
X170728103Y-120431876D01*
X170754809Y-120485289D01*
X170754809Y-120538701D01*
X170728103Y-120592114D01*
X170701397Y-120618820D01*
X170647984Y-120645526D01*
X170541159Y-120672233D01*
X170407628Y-120672233D01*
X170300802Y-120645526D01*
X170247390Y-120618820D01*
X170220684Y-120592114D01*
X170193977Y-120538701D01*
X170754809Y-120084694D02*
X170754809Y-119977869D01*
X170728103Y-119924457D01*
X170701397Y-119897750D01*
X170621278Y-119844338D01*
X170514453Y-119817632D01*
X170300802Y-119817632D01*
X170247390Y-119844338D01*
X170220684Y-119871044D01*
X170193977Y-119924457D01*
X170193977Y-120031282D01*
X170220684Y-120084694D01*
X170247390Y-120111401D01*
X170300802Y-120138107D01*
X170434334Y-120138107D01*
X170487746Y-120111401D01*
X170514453Y-120084694D01*
X170541159Y-120031282D01*
X170541159Y-119924457D01*
X170514453Y-119871044D01*
X170487746Y-119844338D01*
X170434334Y-119817632D01*
D10*
%TO.C,U$33*%
X167214340Y-124502262D02*
X167179505Y-124571931D01*
X167179505Y-124676434D01*
X167214340Y-124780937D01*
X167284008Y-124850605D01*
X167353677Y-124885440D01*
X167493014Y-124920274D01*
X167597517Y-124920274D01*
X167736854Y-124885440D01*
X167806522Y-124850605D01*
X167876191Y-124780937D01*
X167911025Y-124676434D01*
X167911025Y-124606765D01*
X167876191Y-124502262D01*
X167841357Y-124467428D01*
X167597517Y-124467428D01*
X167597517Y-124606765D01*
X167911025Y-122481874D02*
X167179505Y-122481874D01*
X167702020Y-122238034D01*
X167179505Y-121994194D01*
X167911025Y-121994194D01*
X167876191Y-121680685D02*
X167911025Y-121576182D01*
X167911025Y-121402011D01*
X167876191Y-121332342D01*
X167841357Y-121297508D01*
X167771688Y-121262674D01*
X167702020Y-121262674D01*
X167632351Y-121297508D01*
X167597517Y-121332342D01*
X167562682Y-121402011D01*
X167527848Y-121541348D01*
X167493014Y-121611017D01*
X167458180Y-121645851D01*
X167388511Y-121680685D01*
X167318842Y-121680685D01*
X167249174Y-121645851D01*
X167214340Y-121611017D01*
X167179505Y-121541348D01*
X167179505Y-121367177D01*
X167214340Y-121262674D01*
X167249174Y-120984000D02*
X167214340Y-120949165D01*
X167179505Y-120879497D01*
X167179505Y-120705325D01*
X167214340Y-120635657D01*
X167249174Y-120600822D01*
X167318842Y-120565988D01*
X167388511Y-120565988D01*
X167493014Y-120600822D01*
X167911025Y-121018834D01*
X167911025Y-120565988D01*
X167179505Y-118684937D02*
X167911025Y-118441097D01*
X167179505Y-118197257D01*
X160483340Y-124502262D02*
X160448505Y-124571931D01*
X160448505Y-124676434D01*
X160483340Y-124780937D01*
X160553008Y-124850605D01*
X160622677Y-124885440D01*
X160762014Y-124920274D01*
X160866517Y-124920274D01*
X161005854Y-124885440D01*
X161075522Y-124850605D01*
X161145191Y-124780937D01*
X161180025Y-124676434D01*
X161180025Y-124606765D01*
X161145191Y-124502262D01*
X161110357Y-124467428D01*
X160866517Y-124467428D01*
X160866517Y-124606765D01*
X161180025Y-122481874D02*
X160448505Y-122481874D01*
X160971020Y-122238034D01*
X160448505Y-121994194D01*
X161180025Y-121994194D01*
X161145191Y-121680685D02*
X161180025Y-121576182D01*
X161180025Y-121402011D01*
X161145191Y-121332342D01*
X161110357Y-121297508D01*
X161040688Y-121262674D01*
X160971020Y-121262674D01*
X160901351Y-121297508D01*
X160866517Y-121332342D01*
X160831682Y-121402011D01*
X160796848Y-121541348D01*
X160762014Y-121611017D01*
X160727180Y-121645851D01*
X160657511Y-121680685D01*
X160587842Y-121680685D01*
X160518174Y-121645851D01*
X160483340Y-121611017D01*
X160448505Y-121541348D01*
X160448505Y-121367177D01*
X160483340Y-121262674D01*
X161180025Y-120565988D02*
X161180025Y-120984000D01*
X161180025Y-120774994D02*
X160448505Y-120774994D01*
X160553008Y-120844662D01*
X160622677Y-120914331D01*
X160657511Y-120984000D01*
X160448505Y-118684937D02*
X161180025Y-118441097D01*
X160448505Y-118197257D01*
D14*
%TO.C,U6*%
X177192174Y-105588358D02*
X177192174Y-108596976D01*
X177369152Y-108950931D01*
X177546129Y-109127908D01*
X177900084Y-109304886D01*
X178607995Y-109304886D01*
X178961950Y-109127908D01*
X179138927Y-108950931D01*
X179315905Y-108596976D01*
X179315905Y-105588358D01*
X182678478Y-105588358D02*
X181970567Y-105588358D01*
X181616612Y-105765336D01*
X181439635Y-105942313D01*
X181085680Y-106473246D01*
X180908702Y-107181156D01*
X180908702Y-108596976D01*
X181085680Y-108950931D01*
X181262657Y-109127908D01*
X181616612Y-109304886D01*
X182324523Y-109304886D01*
X182678478Y-109127908D01*
X182855455Y-108950931D01*
X183032433Y-108596976D01*
X183032433Y-107712088D01*
X182855455Y-107358133D01*
X182678478Y-107181156D01*
X182324523Y-107004178D01*
X181616612Y-107004178D01*
X181262657Y-107181156D01*
X181085680Y-107358133D01*
X180908702Y-107712088D01*
D15*
X196193977Y-123422980D02*
X196193977Y-123102505D01*
X196754809Y-123262742D02*
X196193977Y-123262742D01*
X196754809Y-122915561D02*
X196193977Y-122915561D01*
X196594572Y-122728617D01*
X196193977Y-122541673D01*
X196754809Y-122541673D01*
X196701397Y-121954134D02*
X196728103Y-121980841D01*
X196754809Y-122060960D01*
X196754809Y-122114372D01*
X196728103Y-122194491D01*
X196674690Y-122247904D01*
X196621278Y-122274610D01*
X196514453Y-122301316D01*
X196434334Y-122301316D01*
X196327509Y-122274610D01*
X196274096Y-122247904D01*
X196220684Y-122194491D01*
X196193977Y-122114372D01*
X196193977Y-122060960D01*
X196220684Y-121980841D01*
X196247390Y-121954134D01*
X196247390Y-121740484D02*
X196220684Y-121713778D01*
X196193977Y-121660365D01*
X196193977Y-121526834D01*
X196220684Y-121473421D01*
X196247390Y-121446715D01*
X196300802Y-121420009D01*
X196354215Y-121420009D01*
X196434334Y-121446715D01*
X196754809Y-121767190D01*
X196754809Y-121420009D01*
X196247390Y-121206358D02*
X196220684Y-121179652D01*
X196193977Y-121126240D01*
X196193977Y-120992708D01*
X196220684Y-120939296D01*
X196247390Y-120912589D01*
X196300802Y-120885883D01*
X196354215Y-120885883D01*
X196434334Y-120912589D01*
X196754809Y-121233065D01*
X196754809Y-120885883D01*
X196193977Y-120538701D02*
X196193977Y-120485289D01*
X196220684Y-120431876D01*
X196247390Y-120405170D01*
X196300802Y-120378464D01*
X196407628Y-120351757D01*
X196541159Y-120351757D01*
X196647984Y-120378464D01*
X196701397Y-120405170D01*
X196728103Y-120431876D01*
X196754809Y-120485289D01*
X196754809Y-120538701D01*
X196728103Y-120592114D01*
X196701397Y-120618820D01*
X196647984Y-120645526D01*
X196541159Y-120672233D01*
X196407628Y-120672233D01*
X196300802Y-120645526D01*
X196247390Y-120618820D01*
X196220684Y-120592114D01*
X196193977Y-120538701D01*
X196754809Y-120084694D02*
X196754809Y-119977869D01*
X196728103Y-119924457D01*
X196701397Y-119897750D01*
X196621278Y-119844338D01*
X196514453Y-119817632D01*
X196300802Y-119817632D01*
X196247390Y-119844338D01*
X196220684Y-119871044D01*
X196193977Y-119924457D01*
X196193977Y-120031282D01*
X196220684Y-120084694D01*
X196247390Y-120111401D01*
X196300802Y-120138107D01*
X196434334Y-120138107D01*
X196487746Y-120111401D01*
X196514453Y-120084694D01*
X196541159Y-120031282D01*
X196541159Y-119924457D01*
X196514453Y-119871044D01*
X196487746Y-119844338D01*
X196434334Y-119817632D01*
D10*
%TO.C,U$41*%
X193214340Y-124502262D02*
X193179505Y-124571931D01*
X193179505Y-124676434D01*
X193214340Y-124780937D01*
X193284008Y-124850605D01*
X193353677Y-124885440D01*
X193493014Y-124920274D01*
X193597517Y-124920274D01*
X193736854Y-124885440D01*
X193806522Y-124850605D01*
X193876191Y-124780937D01*
X193911025Y-124676434D01*
X193911025Y-124606765D01*
X193876191Y-124502262D01*
X193841357Y-124467428D01*
X193597517Y-124467428D01*
X193597517Y-124606765D01*
X193911025Y-122481874D02*
X193179505Y-122481874D01*
X193702020Y-122238034D01*
X193179505Y-121994194D01*
X193911025Y-121994194D01*
X193876191Y-121680685D02*
X193911025Y-121576182D01*
X193911025Y-121402011D01*
X193876191Y-121332342D01*
X193841357Y-121297508D01*
X193771688Y-121262674D01*
X193702020Y-121262674D01*
X193632351Y-121297508D01*
X193597517Y-121332342D01*
X193562682Y-121402011D01*
X193527848Y-121541348D01*
X193493014Y-121611017D01*
X193458180Y-121645851D01*
X193388511Y-121680685D01*
X193318842Y-121680685D01*
X193249174Y-121645851D01*
X193214340Y-121611017D01*
X193179505Y-121541348D01*
X193179505Y-121367177D01*
X193214340Y-121262674D01*
X193249174Y-120984000D02*
X193214340Y-120949165D01*
X193179505Y-120879497D01*
X193179505Y-120705325D01*
X193214340Y-120635657D01*
X193249174Y-120600822D01*
X193318842Y-120565988D01*
X193388511Y-120565988D01*
X193493014Y-120600822D01*
X193911025Y-121018834D01*
X193911025Y-120565988D01*
X193179505Y-118684937D02*
X193911025Y-118441097D01*
X193179505Y-118197257D01*
X186483340Y-124502262D02*
X186448505Y-124571931D01*
X186448505Y-124676434D01*
X186483340Y-124780937D01*
X186553008Y-124850605D01*
X186622677Y-124885440D01*
X186762014Y-124920274D01*
X186866517Y-124920274D01*
X187005854Y-124885440D01*
X187075522Y-124850605D01*
X187145191Y-124780937D01*
X187180025Y-124676434D01*
X187180025Y-124606765D01*
X187145191Y-124502262D01*
X187110357Y-124467428D01*
X186866517Y-124467428D01*
X186866517Y-124606765D01*
X187180025Y-122481874D02*
X186448505Y-122481874D01*
X186971020Y-122238034D01*
X186448505Y-121994194D01*
X187180025Y-121994194D01*
X187145191Y-121680685D02*
X187180025Y-121576182D01*
X187180025Y-121402011D01*
X187145191Y-121332342D01*
X187110357Y-121297508D01*
X187040688Y-121262674D01*
X186971020Y-121262674D01*
X186901351Y-121297508D01*
X186866517Y-121332342D01*
X186831682Y-121402011D01*
X186796848Y-121541348D01*
X186762014Y-121611017D01*
X186727180Y-121645851D01*
X186657511Y-121680685D01*
X186587842Y-121680685D01*
X186518174Y-121645851D01*
X186483340Y-121611017D01*
X186448505Y-121541348D01*
X186448505Y-121367177D01*
X186483340Y-121262674D01*
X187180025Y-120565988D02*
X187180025Y-120984000D01*
X187180025Y-120774994D02*
X186448505Y-120774994D01*
X186553008Y-120844662D01*
X186622677Y-120914331D01*
X186657511Y-120984000D01*
X186448505Y-118684937D02*
X187180025Y-118441097D01*
X186448505Y-118197257D01*
D16*
%TO.C,T_MCU0*%
X108041100Y-89278600D02*
X110581100Y-89278600D01*
X110581100Y-89278600D02*
X110581100Y-91818600D01*
X110581100Y-107058600D02*
X110581100Y-109598600D01*
X110581100Y-109598600D02*
X108041100Y-109598600D01*
X102961100Y-89278600D02*
X100421100Y-89278600D01*
X100421100Y-89278600D02*
X100421100Y-91818600D01*
X100421100Y-107058600D02*
X100421100Y-109598600D01*
X100421100Y-109598600D02*
X102961100Y-109598600D01*
X110581100Y-101978600D02*
X110581100Y-96898600D01*
X100421100Y-96898600D02*
X100421100Y-101978600D01*
%TO.C,U1*%
X133071100Y-84973600D02*
X133071100Y-100213600D01*
X153391100Y-84973600D02*
X133071100Y-84973600D01*
X153391100Y-100213600D02*
X153391100Y-84973600D01*
X133071100Y-100213600D02*
X153391100Y-100213600D01*
D17*
%TO.C,H1*%
X212201100Y-134503600D02*
G75*
G03*
X212201100Y-134503600I-1700000J0D01*
G01*
D18*
X213930100Y-134503600D02*
G75*
G03*
X213930100Y-134503600I-3429000J0D01*
G01*
D17*
%TO.C,H2*%
X212201100Y-75503600D02*
G75*
G03*
X212201100Y-75503600I-1700000J0D01*
G01*
D18*
X213930100Y-75503600D02*
G75*
G03*
X213930100Y-75503600I-3429000J0D01*
G01*
D17*
%TO.C,H3*%
X88201100Y-134503600D02*
G75*
G03*
X88201100Y-134503600I-1700000J0D01*
G01*
D18*
X89930100Y-134503600D02*
G75*
G03*
X89930100Y-134503600I-3429000J0D01*
G01*
D17*
%TO.C,H4*%
X88201100Y-75503600D02*
G75*
G03*
X88201100Y-75503600I-1700000J0D01*
G01*
D18*
X89930100Y-75503600D02*
G75*
G03*
X89930100Y-75503600I-3429000J0D01*
G01*
%TO.C,PAD16*%
X103108100Y-88646600D02*
X103616100Y-88646600D01*
X103108100Y-88138600D02*
X103108100Y-88646600D01*
X103108100Y-86360600D02*
X103108100Y-86868600D01*
X103616100Y-86360600D02*
X103108100Y-86360600D01*
X105394100Y-86360600D02*
X104886100Y-86360600D01*
X105394100Y-86868600D02*
X105394100Y-86360600D01*
X105394100Y-88646600D02*
X104886100Y-88646600D01*
X105394100Y-88646600D02*
X105394100Y-88138600D01*
%TO.C,PAD17*%
X100608100Y-88646600D02*
X101116100Y-88646600D01*
X100608100Y-88138600D02*
X100608100Y-88646600D01*
X100608100Y-86360600D02*
X100608100Y-86868600D01*
X101116100Y-86360600D02*
X100608100Y-86360600D01*
X102894100Y-86360600D02*
X102386100Y-86360600D01*
X102894100Y-86868600D02*
X102894100Y-86360600D01*
X102894100Y-88646600D02*
X102386100Y-88646600D01*
X102894100Y-88646600D02*
X102894100Y-88138600D01*
D16*
%TO.C,MCU0*%
X119451100Y-131753600D02*
X91551100Y-131753600D01*
X119451100Y-77353600D02*
X119451100Y-131753600D01*
X91551100Y-77353600D02*
X119451100Y-77353600D01*
X91551100Y-131753600D02*
X91551100Y-77353600D01*
D18*
%TO.C,X1*%
X103469100Y-82348400D02*
G75*
G03*
X103469100Y-82348400I-508000J0D01*
G01*
X108549100Y-82348400D02*
G75*
G03*
X108549100Y-82348400I-508000J0D01*
G01*
X100421100Y-83694600D02*
X100421100Y-83948600D01*
X110581100Y-83948600D02*
X100421100Y-83948600D01*
X110581100Y-83694600D02*
X110581100Y-83948600D01*
X100421100Y-77090600D02*
X100421100Y-83694600D01*
X110581100Y-77090600D02*
X110581100Y-74677600D01*
X102072100Y-77090600D02*
X100421100Y-77090600D01*
X107152100Y-77090600D02*
X103850100Y-77090600D01*
X110581100Y-77090600D02*
X108930100Y-77090600D01*
X110581100Y-83694600D02*
X110581100Y-77090600D01*
X100421100Y-74677600D02*
X110581100Y-74677600D01*
X100421100Y-74677600D02*
X100421100Y-77090600D01*
X110581100Y-83694600D02*
X100421100Y-83694600D01*
D16*
%TO.C,U$5*%
X136246100Y-91323600D02*
X140056100Y-91323600D01*
X136246100Y-93863600D02*
X140056100Y-93863600D01*
D18*
X140691100Y-90688600D02*
X140056100Y-91323600D01*
X140691100Y-89418600D02*
X140691100Y-90688600D01*
X140056100Y-88783600D02*
X140691100Y-89418600D01*
X140691100Y-94498600D02*
X140691100Y-95768600D01*
X140056100Y-96403600D02*
X140691100Y-95768600D01*
X136246100Y-96403600D02*
X140056100Y-96403600D01*
X140691100Y-93228600D02*
X140056100Y-93863600D01*
X140691100Y-91958600D02*
X140691100Y-93228600D01*
X140056100Y-91323600D02*
X140691100Y-91958600D01*
X140056100Y-93863600D02*
X140691100Y-94498600D01*
X136246100Y-88783600D02*
X140056100Y-88783600D01*
X135611100Y-89418600D02*
X136246100Y-88783600D01*
X135611100Y-90688600D02*
X135611100Y-89418600D01*
X136246100Y-91323600D02*
X135611100Y-90688600D01*
X135611100Y-95768600D02*
X136246100Y-96403600D01*
X135611100Y-91958600D02*
X136246100Y-91323600D01*
X135611100Y-93228600D02*
X135611100Y-91958600D01*
X136246100Y-93863600D02*
X135611100Y-93228600D01*
X135611100Y-94498600D02*
X136246100Y-93863600D01*
X135611100Y-95768600D02*
X135611100Y-94498600D01*
D16*
%TO.C,U2*%
X133071100Y-113973600D02*
X133071100Y-129213600D01*
X153391100Y-113973600D02*
X133071100Y-113973600D01*
X153391100Y-129213600D02*
X153391100Y-113973600D01*
X133071100Y-129213600D02*
X153391100Y-129213600D01*
%TO.C,U$13*%
X136246100Y-120323600D02*
X140056100Y-120323600D01*
X136246100Y-122863600D02*
X140056100Y-122863600D01*
D18*
X140691100Y-119688600D02*
X140056100Y-120323600D01*
X140691100Y-118418600D02*
X140691100Y-119688600D01*
X140056100Y-117783600D02*
X140691100Y-118418600D01*
X140691100Y-123498600D02*
X140691100Y-124768600D01*
X140056100Y-125403600D02*
X140691100Y-124768600D01*
X136246100Y-125403600D02*
X140056100Y-125403600D01*
X140691100Y-122228600D02*
X140056100Y-122863600D01*
X140691100Y-120958600D02*
X140691100Y-122228600D01*
X140056100Y-120323600D02*
X140691100Y-120958600D01*
X140056100Y-122863600D02*
X140691100Y-123498600D01*
X136246100Y-117783600D02*
X140056100Y-117783600D01*
X135611100Y-118418600D02*
X136246100Y-117783600D01*
X135611100Y-119688600D02*
X135611100Y-118418600D01*
X136246100Y-120323600D02*
X135611100Y-119688600D01*
X135611100Y-124768600D02*
X136246100Y-125403600D01*
X135611100Y-120958600D02*
X136246100Y-120323600D01*
X135611100Y-122228600D02*
X135611100Y-120958600D01*
X136246100Y-122863600D02*
X135611100Y-122228600D01*
X135611100Y-123498600D02*
X136246100Y-122863600D01*
X135611100Y-124768600D02*
X135611100Y-123498600D01*
D16*
%TO.C,U3*%
X159071100Y-84973600D02*
X159071100Y-100213600D01*
X179391100Y-84973600D02*
X159071100Y-84973600D01*
X179391100Y-100213600D02*
X179391100Y-84973600D01*
X159071100Y-100213600D02*
X179391100Y-100213600D01*
%TO.C,U$17*%
X162246100Y-91323600D02*
X166056100Y-91323600D01*
X162246100Y-93863600D02*
X166056100Y-93863600D01*
D18*
X166691100Y-90688600D02*
X166056100Y-91323600D01*
X166691100Y-89418600D02*
X166691100Y-90688600D01*
X166056100Y-88783600D02*
X166691100Y-89418600D01*
X166691100Y-94498600D02*
X166691100Y-95768600D01*
X166056100Y-96403600D02*
X166691100Y-95768600D01*
X162246100Y-96403600D02*
X166056100Y-96403600D01*
X166691100Y-93228600D02*
X166056100Y-93863600D01*
X166691100Y-91958600D02*
X166691100Y-93228600D01*
X166056100Y-91323600D02*
X166691100Y-91958600D01*
X166056100Y-93863600D02*
X166691100Y-94498600D01*
X162246100Y-88783600D02*
X166056100Y-88783600D01*
X161611100Y-89418600D02*
X162246100Y-88783600D01*
X161611100Y-90688600D02*
X161611100Y-89418600D01*
X162246100Y-91323600D02*
X161611100Y-90688600D01*
X161611100Y-95768600D02*
X162246100Y-96403600D01*
X161611100Y-91958600D02*
X162246100Y-91323600D01*
X161611100Y-93228600D02*
X161611100Y-91958600D01*
X162246100Y-93863600D02*
X161611100Y-93228600D01*
X161611100Y-94498600D02*
X162246100Y-93863600D01*
X161611100Y-95768600D02*
X161611100Y-94498600D01*
D16*
%TO.C,U5*%
X185071100Y-84973600D02*
X185071100Y-100213600D01*
X205391100Y-84973600D02*
X185071100Y-84973600D01*
X205391100Y-100213600D02*
X205391100Y-84973600D01*
X185071100Y-100213600D02*
X205391100Y-100213600D01*
%TO.C,U$25*%
X188246100Y-91323600D02*
X192056100Y-91323600D01*
X188246100Y-93863600D02*
X192056100Y-93863600D01*
D18*
X192691100Y-90688600D02*
X192056100Y-91323600D01*
X192691100Y-89418600D02*
X192691100Y-90688600D01*
X192056100Y-88783600D02*
X192691100Y-89418600D01*
X192691100Y-94498600D02*
X192691100Y-95768600D01*
X192056100Y-96403600D02*
X192691100Y-95768600D01*
X188246100Y-96403600D02*
X192056100Y-96403600D01*
X192691100Y-93228600D02*
X192056100Y-93863600D01*
X192691100Y-91958600D02*
X192691100Y-93228600D01*
X192056100Y-91323600D02*
X192691100Y-91958600D01*
X192056100Y-93863600D02*
X192691100Y-94498600D01*
X188246100Y-88783600D02*
X192056100Y-88783600D01*
X187611100Y-89418600D02*
X188246100Y-88783600D01*
X187611100Y-90688600D02*
X187611100Y-89418600D01*
X188246100Y-91323600D02*
X187611100Y-90688600D01*
X187611100Y-95768600D02*
X188246100Y-96403600D01*
X187611100Y-91958600D02*
X188246100Y-91323600D01*
X187611100Y-93228600D02*
X187611100Y-91958600D01*
X188246100Y-93863600D02*
X187611100Y-93228600D01*
X187611100Y-94498600D02*
X188246100Y-93863600D01*
X187611100Y-95768600D02*
X187611100Y-94498600D01*
D16*
%TO.C,U4*%
X159071100Y-113973600D02*
X159071100Y-129213600D01*
X179391100Y-113973600D02*
X159071100Y-113973600D01*
X179391100Y-129213600D02*
X179391100Y-113973600D01*
X159071100Y-129213600D02*
X179391100Y-129213600D01*
%TO.C,U$33*%
X162246100Y-120323600D02*
X166056100Y-120323600D01*
X162246100Y-122863600D02*
X166056100Y-122863600D01*
D18*
X166691100Y-119688600D02*
X166056100Y-120323600D01*
X166691100Y-118418600D02*
X166691100Y-119688600D01*
X166056100Y-117783600D02*
X166691100Y-118418600D01*
X166691100Y-123498600D02*
X166691100Y-124768600D01*
X166056100Y-125403600D02*
X166691100Y-124768600D01*
X162246100Y-125403600D02*
X166056100Y-125403600D01*
X166691100Y-122228600D02*
X166056100Y-122863600D01*
X166691100Y-120958600D02*
X166691100Y-122228600D01*
X166056100Y-120323600D02*
X166691100Y-120958600D01*
X166056100Y-122863600D02*
X166691100Y-123498600D01*
X162246100Y-117783600D02*
X166056100Y-117783600D01*
X161611100Y-118418600D02*
X162246100Y-117783600D01*
X161611100Y-119688600D02*
X161611100Y-118418600D01*
X162246100Y-120323600D02*
X161611100Y-119688600D01*
X161611100Y-124768600D02*
X162246100Y-125403600D01*
X161611100Y-120958600D02*
X162246100Y-120323600D01*
X161611100Y-122228600D02*
X161611100Y-120958600D01*
X162246100Y-122863600D02*
X161611100Y-122228600D01*
X161611100Y-123498600D02*
X162246100Y-122863600D01*
X161611100Y-124768600D02*
X161611100Y-123498600D01*
D16*
%TO.C,U6*%
X185071100Y-113973600D02*
X185071100Y-129213600D01*
X205391100Y-113973600D02*
X185071100Y-113973600D01*
X205391100Y-129213600D02*
X205391100Y-113973600D01*
X185071100Y-129213600D02*
X205391100Y-129213600D01*
%TO.C,U$41*%
X188246100Y-120323600D02*
X192056100Y-120323600D01*
X188246100Y-122863600D02*
X192056100Y-122863600D01*
D18*
X192691100Y-119688600D02*
X192056100Y-120323600D01*
X192691100Y-118418600D02*
X192691100Y-119688600D01*
X192056100Y-117783600D02*
X192691100Y-118418600D01*
X192691100Y-123498600D02*
X192691100Y-124768600D01*
X192056100Y-125403600D02*
X192691100Y-124768600D01*
X188246100Y-125403600D02*
X192056100Y-125403600D01*
X192691100Y-122228600D02*
X192056100Y-122863600D01*
X192691100Y-120958600D02*
X192691100Y-122228600D01*
X192056100Y-120323600D02*
X192691100Y-120958600D01*
X192056100Y-122863600D02*
X192691100Y-123498600D01*
X188246100Y-117783600D02*
X192056100Y-117783600D01*
X187611100Y-118418600D02*
X188246100Y-117783600D01*
X187611100Y-119688600D02*
X187611100Y-118418600D01*
X188246100Y-120323600D02*
X187611100Y-119688600D01*
X187611100Y-124768600D02*
X188246100Y-125403600D01*
X187611100Y-120958600D02*
X188246100Y-120323600D01*
X187611100Y-122228600D02*
X187611100Y-120958600D01*
X188246100Y-122863600D02*
X187611100Y-122228600D01*
X187611100Y-123498600D02*
X188246100Y-122863600D01*
X187611100Y-124768600D02*
X187611100Y-123498600D01*
%TD*%
M02*
