M48
; DRILL file {KiCad 6.0.4-6f826c9f35~116~ubuntu20.04.1} date Sa 05 Nov 2022 12:05:31 CET
; FORMAT={-:-/ absolute / inch / decimal}
; #@! TF.CreationDate,2022-11-05T12:05:31+01:00
; #@! TF.GenerationSoftware,Kicad,Pcbnew,6.0.4-6f826c9f35~116~ubuntu20.04.1
; #@! TF.FileFunction,Plated,1,2,PTH
FMAT,2
INCH
; #@! TA.AperFunction,Plated,PTH,ViaDrill
T1C0.0350
; #@! TA.AperFunction,Plated,PTH,ComponentDrill
T2C0.0394
; #@! TA.AperFunction,Plated,PTH,ComponentDrill
T3C0.0400
; #@! TA.AperFunction,Plated,PTH,ComponentDrill
T4C0.0402
; #@! TA.AperFunction,Plated,PTH,ComponentDrill
T5C0.0409
; #@! TA.AperFunction,Plated,PTH,ComponentDrill
T6C0.0470
%
G90
G05
T1
X5.2074Y-4.5935
T2
X3.5237Y-3.2635
X3.5237Y-3.3635
X3.5237Y-3.4635
X3.5237Y-3.5635
X3.5237Y-3.6635
X3.5237Y-3.7635
X3.5237Y-3.8635
X3.5237Y-3.9635
X3.5237Y-4.0635
X3.5237Y-4.1635
X3.5237Y-4.2635
X3.5237Y-4.3635
X3.5237Y-4.4635
X3.5237Y-4.5635
X3.5237Y-4.6635
X3.5237Y-4.7635
X3.5237Y-4.8635
X3.5237Y-4.9635
X3.5237Y-5.0635
X4.7835Y-3.2635
X4.7835Y-3.3635
X4.7835Y-3.4635
X4.7835Y-3.5635
X4.7835Y-3.6635
X4.7835Y-3.7635
X4.7835Y-3.8635
X4.7835Y-3.9635
X4.7835Y-4.0635
X4.7835Y-4.1635
X4.7835Y-4.2635
X4.7835Y-4.3635
X4.7835Y-4.4635
X4.7835Y-4.5635
X4.7835Y-4.6635
X4.7835Y-4.7635
X4.7835Y-4.8635
X4.7835Y-4.9635
X4.7835Y-5.0635
X5.289Y-3.2954
X5.289Y-3.9954
X5.289Y-4.4371
X5.289Y-5.1371
X5.389Y-3.1848
X5.389Y-3.2954
X5.389Y-3.9954
X5.389Y-4.3265
X5.389Y-4.4371
X5.389Y-5.1371
X5.489Y-3.1848
X5.489Y-3.2954
X5.489Y-3.9954
X5.489Y-4.3265
X5.489Y-4.4371
X5.489Y-5.1371
X5.589Y-3.1848
X5.589Y-3.2954
X5.589Y-3.9954
X5.589Y-4.3265
X5.589Y-4.4371
X5.589Y-5.1371
X5.689Y-3.1848
X5.689Y-3.2954
X5.689Y-3.9954
X5.689Y-4.3265
X5.689Y-4.4371
X5.689Y-5.1371
X5.789Y-3.1848
X5.789Y-3.2954
X5.789Y-3.9954
X5.789Y-4.3265
X5.789Y-4.4371
X5.789Y-5.1371
X5.889Y-3.1848
X5.889Y-3.2954
X5.889Y-3.9954
X5.889Y-4.3265
X5.889Y-4.4371
X5.889Y-5.1371
X5.989Y-3.1848
X5.989Y-3.2954
X5.989Y-3.9954
X5.989Y-4.3265
X5.989Y-4.4371
X5.989Y-5.1371
X6.3126Y-3.2954
X6.3126Y-3.9954
X6.3126Y-4.4371
X6.3126Y-5.1371
X6.4126Y-3.1848
X6.4126Y-3.2954
X6.4126Y-3.9954
X6.4126Y-4.3265
X6.4126Y-4.4371
X6.4126Y-5.1371
X6.5126Y-3.1848
X6.5126Y-3.2954
X6.5126Y-3.9954
X6.5126Y-4.3265
X6.5126Y-4.4371
X6.5126Y-5.1371
X6.6126Y-3.1848
X6.6126Y-3.2954
X6.6126Y-3.9954
X6.6126Y-4.3265
X6.6126Y-4.4371
X6.6126Y-5.1371
X6.7126Y-3.1848
X6.7126Y-3.2954
X6.7126Y-3.9954
X6.7126Y-4.3265
X6.7126Y-4.4371
X6.7126Y-5.1371
X6.8126Y-3.1848
X6.8126Y-3.2954
X6.8126Y-3.9954
X6.8126Y-4.3265
X6.8126Y-4.4371
X6.8126Y-5.1371
X6.9126Y-3.1848
X6.9126Y-3.2954
X6.9126Y-3.9954
X6.9126Y-4.3265
X6.9126Y-4.4371
X6.9126Y-5.1371
X7.0126Y-3.1848
X7.0126Y-3.2954
X7.0126Y-3.9954
X7.0126Y-4.3265
X7.0126Y-4.4371
X7.0126Y-5.1371
X7.3363Y-3.2954
X7.3363Y-3.9954
X7.3363Y-4.4371
X7.3363Y-5.1371
X7.4363Y-3.1848
X7.4363Y-3.2954
X7.4363Y-3.9954
X7.4363Y-4.3265
X7.4363Y-4.4371
X7.4363Y-5.1371
X7.5363Y-3.1848
X7.5363Y-3.2954
X7.5363Y-3.9954
X7.5363Y-4.3265
X7.5363Y-4.4371
X7.5363Y-5.1371
X7.6363Y-3.1848
X7.6363Y-3.2954
X7.6363Y-3.9954
X7.6363Y-4.3265
X7.6363Y-4.4371
X7.6363Y-5.1371
X7.7363Y-3.1848
X7.7363Y-3.2954
X7.7363Y-3.9954
X7.7363Y-4.3265
X7.7363Y-4.4371
X7.7363Y-5.1371
X7.8363Y-3.1848
X7.8363Y-3.2954
X7.8363Y-3.9954
X7.8363Y-4.3265
X7.8363Y-4.4371
X7.8363Y-5.1371
X7.9363Y-3.1848
X7.9363Y-3.2954
X7.9363Y-3.9954
X7.9363Y-4.3265
X7.9363Y-4.4371
X7.9363Y-5.1371
X8.0363Y-3.1848
X8.0363Y-3.2954
X8.0363Y-3.9954
X8.0363Y-4.3265
X8.0363Y-4.4371
X8.0363Y-5.1371
T3
X4.0059Y-3.445
X4.1044Y-3.445
X5.389Y-3.5454
X5.389Y-3.6454
X5.389Y-3.7454
X5.389Y-4.6871
X5.389Y-4.7871
X5.389Y-4.8871
X5.489Y-3.5454
X5.489Y-3.6454
X5.489Y-3.7454
X5.489Y-4.6871
X5.489Y-4.7871
X5.489Y-4.8871
X6.4126Y-3.5454
X6.4126Y-3.6454
X6.4126Y-3.7454
X6.4126Y-4.6871
X6.4126Y-4.7871
X6.4126Y-4.8871
X6.5126Y-3.5454
X6.5126Y-3.6454
X6.5126Y-3.7454
X6.5126Y-4.6871
X6.5126Y-4.7871
X6.5126Y-4.8871
X7.4363Y-3.5454
X7.4363Y-3.6454
X7.4363Y-3.7454
X7.4363Y-4.6871
X7.4363Y-4.7871
X7.4363Y-4.8871
X7.5363Y-3.5454
X7.5363Y-3.6454
X7.5363Y-3.7454
X7.5363Y-4.6871
X7.5363Y-4.7871
X7.5363Y-4.8871
T4
X4.0036Y-3.5649
X4.1036Y-3.5649
X4.2036Y-3.5649
X5.289Y-3.3954
X5.289Y-3.8954
X5.289Y-4.5371
X5.289Y-5.0371
X5.389Y-3.3954
X5.389Y-3.8954
X5.389Y-4.5371
X5.389Y-5.0371
X5.489Y-3.3954
X5.489Y-3.8954
X5.489Y-4.5371
X5.489Y-5.0371
X5.589Y-3.3954
X5.589Y-3.8954
X5.589Y-4.5371
X5.589Y-5.0371
X5.689Y-3.3954
X5.689Y-3.8954
X5.689Y-4.5371
X5.689Y-5.0371
X5.789Y-3.3954
X5.789Y-3.8954
X5.789Y-4.5371
X5.789Y-5.0371
X5.889Y-3.3954
X5.889Y-3.8954
X5.889Y-4.5371
X5.889Y-5.0371
X5.989Y-3.3954
X5.989Y-3.8954
X5.989Y-4.5371
X5.989Y-5.0371
X6.3126Y-3.3954
X6.3126Y-3.8954
X6.3126Y-4.5371
X6.3126Y-5.0371
X6.4126Y-3.3954
X6.4126Y-3.8954
X6.4126Y-4.5371
X6.4126Y-5.0371
X6.5126Y-3.3954
X6.5126Y-3.8954
X6.5126Y-4.5371
X6.5126Y-5.0371
X6.6126Y-3.3954
X6.6126Y-3.8954
X6.6126Y-4.5371
X6.6126Y-5.0371
X6.7126Y-3.3954
X6.7126Y-3.8954
X6.7126Y-4.5371
X6.7126Y-5.0371
X6.8126Y-3.3954
X6.8126Y-3.8954
X6.8126Y-4.5371
X6.8126Y-5.0371
X6.9126Y-3.3954
X6.9126Y-3.8954
X6.9126Y-4.5371
X6.9126Y-5.0371
X7.0126Y-3.3954
X7.0126Y-3.8954
X7.0126Y-4.5371
X7.0126Y-5.0371
X7.3363Y-3.3954
X7.3363Y-3.8954
X7.3363Y-4.5371
X7.3363Y-5.0371
X7.4363Y-3.3954
X7.4363Y-3.8954
X7.4363Y-4.5371
X7.4363Y-5.0371
X7.5363Y-3.3954
X7.5363Y-3.8954
X7.5363Y-4.5371
X7.5363Y-5.0371
X7.6363Y-3.3954
X7.6363Y-3.8954
X7.6363Y-4.5371
X7.6363Y-5.0371
X7.7363Y-3.3954
X7.7363Y-3.8954
X7.7363Y-4.5371
X7.7363Y-5.0371
X7.8363Y-3.3954
X7.8363Y-3.8954
X7.8363Y-4.5371
X7.8363Y-5.0371
X7.9363Y-3.3954
X7.9363Y-3.8954
X7.9363Y-4.5371
X7.9363Y-5.0371
X8.0363Y-3.3954
X8.0363Y-3.8954
X8.0363Y-4.5371
X8.0363Y-5.0371
T5
X3.6536Y-3.3364
X3.6536Y-3.4364
X3.6536Y-3.5364
X3.6536Y-3.6364
X3.6536Y-3.7364
X3.6536Y-3.8364
X3.6536Y-3.9364
X3.6536Y-4.0364
X3.6536Y-4.1364
X3.6536Y-4.2364
X3.6536Y-4.3364
X3.6536Y-4.4364
X3.6536Y-4.5364
X3.6536Y-4.6364
X3.6536Y-4.7364
X3.6536Y-4.8364
X3.6536Y-4.9364
X3.6536Y-5.0364
X3.6536Y-5.1364
X4.6536Y-3.3364
X4.6536Y-3.4364
X4.6536Y-3.5364
X4.6536Y-3.6364
X4.6536Y-3.7364
X4.6536Y-3.8364
X4.6536Y-3.9364
X4.6536Y-4.0364
X4.6536Y-4.1364
X4.6536Y-4.2364
X4.6536Y-4.3364
X4.6536Y-4.4364
X4.6536Y-4.5364
X4.6536Y-4.6364
X4.6536Y-4.7364
X4.6536Y-4.8364
X4.6536Y-4.9364
X4.6536Y-5.0364
X4.6536Y-5.1364
T6
X4.0536Y-3.1051
X4.2536Y-3.1051
T0
M30
